<?xml version="1.0" standalone="no"?>
<!DOCTYPE svg PUBLIC "-//W3C//DTD SVG 1.1//EN" "http://www.w3.org/Graphics/SVG/1.1/DTD/svg11.dtd" >
<svg>
<metadata>
Created by FontForge 20090622 at Mon Mar 28 18:36:54 2016
 By deploy user
</metadata>
<defs>
<font id="icomoon" horiz-adv-x="1024" >
  <font-face 
    font-family="icomoon"
    font-weight="400"
    font-stretch="normal"
    units-per-em="1024"
    panose-1="0 0 0 0 0 0 0 0 0 0"
    ascent="960"
    descent="-64"
    bbox="-12 -66 1026 973"
    underline-thickness="0"
    underline-position="0"
    unicode-range="U+0001-U+E8E9"
  />
<missing-glyph 
d="M511 -66q-103 0 -197 40t-164 110t-111 163.5t-41 199.5t41 199.5t111 163.5t164 111t197 41q107 0 201 -41t163.5 -111t110 -163.5t40.5 -199.5t-40.5 -199.5t-110 -163.5t-163.5 -110t-201 -40z" />
    <glyph glyph-name=".notdef" 
d="M511 -66q-103 0 -197 40t-164 110t-111 163.5t-41 199.5t41 199.5t111 163.5t164 111t197 41q107 0 201 -41t163.5 -111t110 -163.5t40.5 -199.5t-40.5 -199.5t-110 -163.5t-163.5 -110t-201 -40z" />
    <glyph glyph-name="_1" horiz-adv-x="0" 
 />
    <glyph glyph-name="nonmarkingreturn" horiz-adv-x="341" 
 />
    <glyph glyph-name="NULL" horiz-adv-x="0" 
 />
    <glyph glyph-name="NULL" horiz-adv-x="0" 
 />
    <glyph glyph-name="uni0001" horiz-adv-x="0" 
 />
    <glyph glyph-name="space" unicode=" " horiz-adv-x="512" 
 />
    <glyph glyph-name="OE" unicode="&#x152;" horiz-adv-x="853" 
 />
    <glyph glyph-name="uni25FC" unicode="&#x25fc;" horiz-adv-x="500" 
 />
    <glyph glyph-name="uniE600" unicode="&#xe600;" 
d="M679 211h-9v227h9q2 0 3.5 1t1.5 4q0 2 -1.5 3.5t-3.5 1.5h-9q-3 15 -15 28t-30 16q0 11 -10.5 26t-23.5 18v7q0 5 -3 8t-7 5v16q2 1 4 3.5t2 5.5t-1.5 5t-4.5 3v4q2 0 3.5 1.5t-1.5 4.5q4 9 -1 12q-2 2 -4 6v-7h-7v6q-2 -3 -5 -5q-4 -3 -1 -12q-2 -3 -1 -4.5t3 -1.5v-4
q-2 -2 -3 -3.5t-1 -4.5t1 -5.5t3 -3.5v-16q-2 -2 -4 -5t-2 -8v-7q-16 -3 -25.5 -18t-8.5 -26q-20 -3 -32.5 -16t-14.5 -28h-9q-3 0 -4 -1.5t-1 -3.5q0 -3 1 -4t4 -1h8v-227h-8q-3 0 -4 -0.5t-1 -2.5q0 -1 1 -2.5t4 -1.5h12q7 -9 18.5 -11.5t25.5 -2.5q4 -12 14 -15t20 -4v-5
q0 -5 3.5 -9t11.5 -4q5 0 10 4t5 9v5q7 1 17.5 4t16.5 15q13 -1 24.5 2t17.5 12h13q2 0 3 1.5t1 2.5t-1.5 2t-3.5 1zM280 334h-7v214h7q2 0 3 1t1 3q0 1 -1 2.5t-3 1.5h-7q5 9 1.5 16t-12.5 9q-6 30 -27.5 30t-33.5 18q1 1 1.5 2.5t0.5 4.5t-1 5.5t-4 4.5v16q2 1 3 2t1 4
q0 2 -1 4t-3 3v3q2 0 2.5 1t-0.5 3q2 10 -2 12q-2 1 -4 3v-33h-6v33l-3 -3q-4 -2 0 -12q-3 -2 -2 -3t3 -1v-3q-1 -1 -2.5 -3t-1.5 -4q0 -4 1 -5l3 -1v-16q-3 -2 -5 -4.5t-2 -5.5t1 -4.5t3 -2.5q-13 -17 -34.5 -17.5t-27.5 -30.5q-10 -2 -13.5 -9t2.5 -16h-7q-2 0 -3 -1
t-1 -3q0 -1 1 -2.5t3 -1.5h7v-214h-7q-2 0 -3 -1t-1 -3q0 -1 1 -2t3 -1h7q37 -8 81 -8.5t82 8.5h8q1 0 2.5 1t1.5 2q-1 1 -2 2.5t-3 1.5zM926 454l-74 12l-31 63v306h-7v-306l-30 -63l-75 -12l53 -52l-11 -74l67 35l67 -35l-14 74zM444 309q-16 5 -31 6t-29 0v621h-5v-622
q-57 -6 -83 -50t-18 -90.5t50 -77.5t122 -13q-65 4 -93.5 39.5t-25.5 76t32.5 74.5t80.5 36zM623 240q0 -7 -5 -12t-12 -5h-9q-5 0 -10.5 4.5t-5.5 12.5v171q0 8 5.5 13t10.5 5h9q7 0 12 -5t5 -13v-171zM567 240q0 -7 -4 -12t-12 -5h-8q-8 0 -12 4.5t-4 12.5v171q0 8 4 13
t12 5h8q8 0 12 -5t4 -13v-171zM231 350h-35v140q0 7 7 13l11 9l8 -9q9 -6 9 -13v-140zM186 350h-35v140q0 7 9 13l10 9l8 -9q8 -6 8 -13v-140zM514 240q0 -7 -3 -12t-6 -5h-6q-3 0 -6 4.5t-3 12.5v171q0 8 3 13t6 5h6q3 0 6 -5t3 -13v-171zM658 240q0 -7 -2 -12t-6 -5h-5
q-4 0 -7 4.5t-3 12.5v171q0 8 3 13t7 5h5q4 0 6 -5t2 -13v-171zM141 350h-21v140q0 7 5 13l6 9l5 -9q5 -6 5 -13v-140zM262 350h-21v140q0 7 6 13l5 9l5 -9q5 -6 5 -13v-140zM571 973h7v-356l-3 4q-1 -3 -4 -5v357zM188 828h6v-131l-3 5q-1 -4 -3 -5v131z" />
    <glyph glyph-name="uniE601" unicode="&#xe601;" 
d="M458 22h-3l-1 1h-1l1 -1h-1q2 -2 2 -5q-9 6 -11 8t-10 9q-6 3 -11 3.5t-11 3.5q2 4 3.5 4.5t4.5 0.5q-7 8 -7.5 10t-0.5 8l-3 -7v-4q-11 8 -12.5 11.5t-3.5 10.5q-8 7 -11 9t-9 9q3 1 6 1.5t6 0.5v23l-8 -6l-4 -5q-3 12 -4 17t-4 10q-6 13 -8 15.5t-9 9.5q7 2 11 2.5
t6 0.5q3 12 4 17.5t4 13.5q-6 -5 -9 -8.5t-7 -5.5q0 14 0.5 18.5t4.5 11.5q-7 9 -8 14t-1 8q8 0 9.5 0.5t6.5 6.5q6 11 9.5 13.5t6.5 12.5q-10 -6 -11.5 -9.5t-8.5 -5.5q7 12 8 16.5t4 10.5v20l10 2q2 1 6 1q8 10 11 12.5t8 7.5q-8 -3 -11 -5l-8 -7q8 12 11 15t8 9q2 6 3 6
q0 1 2 2q-4 -2 -8 -3l-8 -5l-12 -12q-2 -2 -3 -5t-5 -7q0 6 0.5 7.5t3.5 4.5q-10 -9 -11 -11l-5 -9q4 -3 8 -3q-3 -3 -9.5 -10.5t-10.5 -9.5q-3 -12 -4 -15t-5 -12q-2 4 -2.5 6.5t-0.5 8.5q-2 -13 -2.5 -17t-0.5 -9q2 -6 3.5 -6.5t7.5 -0.5l-10 -10.5t-7 -11.5
q0 -14 0.5 -17.5t5.5 -12.5q-7 5 -7.5 7t-5.5 7q5 -14 5.5 -17.5t1.5 -13.5q5 -2 7.5 -2.5t4.5 -0.5q-2 -13 -2.5 -17t-0.5 -8l7 -15q2 -3 5 -12q-6 7 -10 7q-1 1 -2 1q5 -6 7 -9l5 -11q6 0 8 -0.5t8 -1.5q0 -5 0.5 -9t3.5 -9q7 -10 10 -13l9 -9q-5 1 -7 2l3 -2q3 -2 9 -7
q7 0 8 -0.5t3 -4.5q8 -7 12 -7q9 -7 12 -10l1 -1h2l1 -1q-9 2 -12 3q-4 2 -13 9q-4 3 -8.5 3.5t-10.5 3.5h5l-5 5q-8 8 -9.5 10t-5.5 8v-7l1 -3q-7 7 -8.5 10.5t-8.5 10.5q-6 7 -8 9q-2 1 -4 3l-5 6q0 2 5 2q-6 12 -8 15l-3 8v-11q-5 12 -6 17t-1 10q-7 13 -9 16q-1 1 -1 4
v5q0 3 4 3v31l-4 -8v24q0 9 0.5 14t3.5 8l6 7q0 11 2 13.5t8 12.5q-5 -5 -8 -9q3 7 5 10q2 5 6 11q4 9 5 10.5t4 9.5l5 3q3 5 7 8q1 2 3 3l-1 -1l3 2q4 3 7 8q-3 -1 -5 -3q3 4 5 6l12 9q6 6 8 6l6 5q1 1 2 1q3 0 3 4q11 5 15 6.5t13 5.5l-1 -1q4 2 13 4q4 0 7 2h1
q-3 -2 -5 -2q-11 -2 -14.5 -5.5t-8.5 -5.5l2 3l2 2l-2 -1l-1 -1q-2 -1 -3 -2q1 1 3 2h-2q-5 -1 -7 -3q-3 -2 -9 -4l5 -4q5 0 7 0.5t5 3.5q13 5 15 6t5 3l-8 -3l8 5q2 2 11 4v32h16q0 17 19 23v479h9v-479q19 -6 19 -23h16v-29q3 0 5 -1.5t7 -1.5q7 -2 12 -3l1 -3h2l1 -1
l5 -2h-1l2 -1q-4 1 -5 2q1 -1 1 -3q-7 5 -13 7l-11 4h-4l-2 1v-1q9 -2 13 -6q3 -3 8 -5q-3 1 -4 1l1 -1q4 -1 8 -4q3 -3 6.5 -3.5t5.5 -0.5q6 0 6 4q-5 2 -8 4h-1v1q2 0 2 -1q4 -1 13 -4l4 -4q3 -4 7 -5h1q5 -1 8 -2h-5l5 -5q12 -9 14 -12t9 -12q-7 6 -8.5 7.5t-7.5 4.5v-12
q-5 12 -7 15t-8 9q-8 6 -12.5 7t-10.5 4l5 -5l2 -6q5 -9 10 -12t10 -12l-22 12l8 -12l10 -8l11 -3h10q0 -3 -0.5 -7.5t-5.5 -8.5v-4q6 -12 7 -15t6 -12q-10 4 -13 6.5t-7 8.5q4 -13 8.5 -17t6.5 -9q9 -6 11.5 -6.5t8.5 -0.5q-3 -3 -5.5 -9t-2.5 -8q-4 0 -4 -4v-1
q3 -14 3.5 -17.5t0.5 -12.5q-5 5 -9.5 7t-10.5 7q6 -14 7 -17.5t6 -13.5q5 -2 8.5 -2.5t6.5 -0.5q-3 -7 -6.5 -12.5t-8.5 -7.5v-5q-5 -11 -5 -15v-12q-6 7 -8 8l-7 3v-23q10 0 11.5 -0.5t3.5 -1.5q-2 -5 -7.5 -9t-11.5 -9q-5 -10 -7 -13t-9 -9q0 6 -0.5 7.5t-3.5 3.5
q-1 -8 -2 -10.5t-6 -7.5q8 0 8 -5q5 4 7 4.5t6 0.5q11 8 14 10t10 8q-10 -6 -12 -7q-1 -1 -3 -2l8 9l9 11v18l9 1q3 1 7 1q9 12 11 15l6 8q-6 -4 -8 -6t-9 -5q7 12 9 17l3 10q-2 13 -2.5 15.5t-5.5 9.5q10 2 12 2.5t5 0.5q5 12 6 17.5t1 13.5l-5 -10q-1 -2 -6 -4l3 18
q1 5 1 12q-7 9 -9 14t-8 8q6 0 7.5 0.5t5.5 6.5v26q-4 -6 -5 -9.5t-3 -5.5q-4 12 -5 16.5t-4 10.5q-8 9 -10.5 10.5t-7.5 9.5q2 3 3 3h4l-6 12v2l6 -6q4 -1 7 -8l8 -3l3 -3l3 -5l-1 1q1 -2 3 -13q6 -12 9 -15t7 -12q-6 4 -7 6l-1 2q2 -7 2 -9q2 -5 6 -10q4 -6 4.5 -6.5
t2.5 -0.5v-52q-2 5 -2 7l-5 7q4 -14 4.5 -17.5t0.5 -13.5l2 -3q0 -11 -7 -25q-4 -11 -5 -14.5t-6 -12.5v11q-4 -8 -5 -12t-3 -11q2 0 3 -1q-1 -6 -2 -8l-1 -1v1q-3 -2 -13 -11q-9 -10 -11.5 -13t-8.5 -9q5 6 5.5 7.5t0.5 3.5q-7 -8 -9 -10.5t-8 -7.5v-5l-5 -2v-1l-3 -1l2 1
q-5 -1 -6 -1l-8 -3q-11 -9 -15 -11.5t-12 -5.5q4 3 5.5 4.5t1.5 3.5q3 2 12 9q5 3 6.5 3.5t1.5 3.5q-6 -3 -11.5 -3.5t-8.5 -3.5q-8 -9 -10.5 -11.5t-9.5 -5.5v8l-10 -10h3q-6 -1 -9 -3h-1q-2 -4 -9 -4q4 4 7 5q-3 0 -4 -1q-4 -4 -6 -4h-4q1 3 3 4l2 2q1 1 2 1h8q3 2 6 3h-1
l1 1v-1l1 1q4 1 6 3v1l2 2q3 2 9 9q0 3 -0.5 3.5t-5.5 3.5q7 4 11.5 4.5t8.5 0.5l20 18q-9 -6 -11.5 -7l-10.5 -4q8 8 10 11.5t4 10.5q-2 7 -3 9l-5 9l15 1q3 1 9 1q7 12 10 15.5t6 7.5q-12 -4 -15 -6l-9 -5l7 17t6 10q-7 13 -10.5 15.5t-4.5 9.5q6 2 11.5 2.5t10.5 0.5
q6 12 7 17.5t4 13.5l-10 -10q-2 -2 -8 -4q0 14 1.5 18.5t1.5 11.5q-8 12 -11 15.5t-13 6.5q11 0 15 0.5t13 6.5q0 11 2 13.5t2 12.5q-9 -6 -11 -9.5t-9 -5.5v27q-12 9 -14.5 10.5t-9.5 9.5q10 0 12 1.5t8 1.5q0 10 -1 12l-1 8q-5 -3 -6 -5l-3 -7l-9 15q0 3 -2 9q-10 6 -12 7
t-8 5q6 0 7.5 0.5t3.5 3.5q-2 5 -4 6l-5 5h-1l-1 1v-8q-3 2 -3.5 3t-0.5 5q-4 -5 -9 -5q-1 -1 -2 0h-1l3 -3q-4 0 -4 1q-3 1 -3 2h-3q1 -2 2 -3q2 -1 5 -4q2 -3 7.5 -3.5t8.5 -0.5q0 -6 -0.5 -7.5t-3.5 -4.5q5 -9 6 -12t6 -12q-6 4 -12 6.5t-12 5.5q6 -9 9.5 -11t6.5 -9
q6 0 12 -1.5t10 -1.5q-4 -9 -6 -11t-5 -9q3 -12 4.5 -15t4.5 -12q-13 4 -16.5 6.5l-11.5 8.5q6 -13 9 -16l7 -10q12 -6 16.5 -6.5t9.5 -0.5q-5 -6 -7.5 -11t-6.5 -11q0 -14 0.5 -17.5t1.5 -12.5q-11 5 -14 7t-12 7q5 -14 6 -17.5t6 -13.5q14 0 18 -1.5t14 -1.5
q-14 -8 -16.5 -11t-8.5 -14v-27l-13 7q-1 2 -6 4q3 -8 4 -12t2 -11q10 0 14.5 -0.5t9.5 -1.5q-12 -9 -18 -18h-6v-13q0 -3 -2 -9q-5 6 -7.5 7.5t-8.5 3.5l2 -11q1 -2 1 -7q10 0 12 -0.5t3 -4.5q-1 0 -6 -2t-9 -5q-3 -9 -3.5 -11.5t-3.5 -5.5l-7 8v-10q-3 -1 -4 -3.5t-4 -3.5
h-4l-5 7h8q4 2 5 5t4 5q-8 -2 -9 -3l-2 -2q1 1 1 3q1 4 1 11q-2 3 -3.5 3.5t-8.5 3.5q7 4 10 4.5t11 0.5q2 5 5 8.5t6 9.5q-3 -2 -8.5 -5l-11.5 -6q0 6 2.5 11.5t2.5 10.5l-8 9l-9 9q7 1 14 1.5t14 0.5q5 14 12 23q-13 -4 -23 -11q0 9 2 15.5t2 11.5q-9 11 -12 14t-14 11
q11 0 19 1.5t14 1.5q9 12 11.5 17.5t4.5 13.5q-12 -8 -15.5 -10t-11.5 -4q3 12 3.5 17.5t0.5 12.5l-10 9q-2 3 -16 13q11 0 19 3.5t14 3.5q5 11 6.5 13.5t5.5 12.5q-12 -10 -15 -12l-8 -3q0 12 0.5 16.5t3.5 10.5l-21 20q7 0 13.5 1.5t10.5 1.5q3 10 5.5 12.5t2.5 7.5
q-9 -3 -11.5 -5.5t-8.5 -6.5q4 12 4.5 15t0.5 9q-6 6 -10 7t-7 5q7 0 9.5 0.5t7.5 3.5q1 2 2.5 3t1.5 2v2h-4q-5 0 -5.5 -1.5t-2.5 -1.5q0 2 1.5 3t1.5 5h-3v-3q-3 -2 -5 -2q-4 0 -4 5q-5 -5 -8 -5v-3l-3 3h-6v-7q8 -3 11 -3.5t6 -0.5l-8 -8q-1 -1 -9 -4v-24q-5 6 -8 7.5
t-5 4.5l2 -11q1 -2 1 -9q6 0 13.5 -1.5t13.5 -1.5q-6 -8 -12 -10.5t-12 -9.5q4 -12 4.5 -15t0.5 -12q-12 4 -15.5 6.5t-8.5 8.5q2 -13 3 -15.5t5 -10.5q8 0 17 -3.5t13 -3.5q-8 -6 -12 -11t-10 -11q2 -14 3 -17.5t5 -12.5l-17 7t-10 7q5 -14 6 -18l5 -13q8 0 17 -1.5
t13 -1.5q-8 -8 -10.5 -13.5t-8.5 -11.5q4 -11 4.5 -14.5t0.5 -12.5q-9 7 -14 8t-10 3l8 -11q2 -2 8 -12q6 0 12.5 -0.5t14.5 -1.5q-8 -7 -10.5 -10t-8.5 -8q2 -10 2.5 -13t5.5 -9q-12 5 -19 11q2 -6 4.5 -9.5t6.5 -8.5q6 0 9.5 -0.5t9.5 -4.5l-7 -4q-1 0 -4 -3
q3 -9 4.5 -11.5t1.5 -5.5q-2 3 -4.5 4.5t-7.5 3.5q8 -6 9 -7l3 -3h7q-2 -1 -2 -3q-1 -3 0 -4h-5q-4 6 -5.5 6.5t-2.5 0.5h2q-5 5 -5.5 6.5t-0.5 3.5q-2 -3 -2 -8q-6 6 -7.5 8t-3.5 9q-8 3 -11.5 3.5t-8.5 3.5q5 4 7 4.5t8 0.5v18l-11 -11q-3 8 -3.5 11.5t-0.5 10.5
q-13 7 -15 10t-9 8q8 1 10.5 1.5t13.5 0.5q3 12 3.5 15.5t3.5 7.5l-23 -11v27q-10 11 -12 14.5t-8 10.5l14 2q4 1 8 1q3 8 6 12l3 7l3 5q2 4 6 7q-13 -8 -17 -10t-11 -4l2 18q2 5 2 12l-10 13l-6 9q11 0 15 0.5t13 6.5q6 11 8.5 13.5t6.5 12.5q-11 -10 -15 -11.5t-12 -3.5
q5 12 6 16.5t6 10.5q-7 9 -7.5 10.5t-4.5 9.5q5 0 11 1.5t13 1.5q5 10 6.5 12.5t9.5 7.5q-8 -3 -13.5 -5.5t-10.5 -6.5l7 15l4 9v12q2 0 6 0.5t10 3.5q2 3 5 4t3 3q-4 0 -6.5 -1.5t-4.5 -1.5q2 2 4 3t2 5l-3 -5q-2 0 -5 0.5t-3 4.5l-8 -8v8l-11 -12q3 -3 5 -3.5t6 -0.5
l-23 -12q-3 -9 -5.5 -12t-2.5 -12q-6 6 -9 7l-3 5q0 -9 -1.5 -11t-1.5 -9l10 -3h9q-8 -8 -12 -11t-7 -5q-3 -4 -5 -4q0 -12 -1.5 -15t-1.5 -12q-6 4 -8 6.5t-8 8.5q2 -13 2.5 -17t0.5 -9q10 -6 13 -6.5t11 -0.5l-12 -11q-3 -4 -5 -6q-3 -4 -2 -5v-16q0 -5 3 -14q-11 5 -14 7
t-9 7l7 -18q2 -3 5 -13q12 -2 15.5 -2.5t11.5 -0.5q-8 -8 -10 -13.5t-6 -11.5q4 -11 5.5 -14.5t7.5 -12.5q-12 7 -16 7l-8 4q6 -11 9 -13.5t7 -9.5q11 0 14 -1l9 -1q-3 -7 -4 -10t-5 -8q7 -10 10.5 -13t6.5 -9q-10 6 -12 7.5t-8 3.5l11 -11l9 -7q1 0 7 -0.5t9 -4.5v-7
q8 -9 9 -11zM733 667l-39 -70l-30 58q14 28 33 50.5t41 36.5v32h11q0 10 7.5 17t15.5 7v98h5v-98q21 -8 21 -24h14v-32q21 -10 38.5 -32.5t31.5 -48.5l-31 -64l-39 70l-40 -70zM314 754q29 -21 35 -42t-4 -41.5t-30 -42t-46 -42.5l-49 -43q-23 -21 -39.5 -41.5t-21.5 -42
t9 -42.5q-17 9 -33 23l-30 32q10 23 31.5 45t47 44.5l49.5 45.5t38 46t13.5 46.5t-26.5 47.5h-2l-5 4q0 -4 -2 -4q-6 0 -6 3q-1 -3 -7 -3q-4 0 -4 3q-1 -3 -8 -3q-4 0 -4 4v35h16q0 17 20 23v83h2v-83q10 -2 16.5 -8t6.5 -15h17v-28q3 0 8.5 -0.5t7.5 -3.5zM432 644
q-11 -21 -29 -41l-35 -40l-32.5 -40t-24 -40t-7 -40t17.5 -38q-14 -6 -30.5 -8.5t-33.5 -2.5h-2q-29 25 -31 49t14 49t41 48l54 49q27 26 47 50.5t23 49.5q16 -18 28 -45zM890 449l8 -17q-10 -25 -25 -47.5t-31 -40t-34 -27.5t-36 -10q-17 0 -34.5 11t-33.5 28.5t-30.5 40
t-26.5 45.5l8 17l39 -72l39 72l39 -72l40 72l39 -72zM184 747q18 -20 21.5 -39.5t-3 -39t-21.5 -39.5l-31 -40l-33 -39q-17 -19 -30 -39q-12 28 -12 64q15 29 27.5 59.5t12.5 60.5q15 17 32.5 30t36.5 22zM922 566q0 -9 1.5 -17.5t1.5 -17.5v-15l-35 66l-39 -71l-39 71
l-40 -71l-39 71l-39 -71l-39 71l-30 -61v10q0 21 7 46l23 49l39 -71l39 71l39 -71l40 71l39 -71l39 71zM890 539l27 -56q-2 -5 -2.5 -13t-5.5 -13l-19 35l-39 -70l-39 70l-40 -70l-39 70l-39 -70l-39 70l-16 -31q-7 13 -7 27l23 51l39 -71l39 71l39 -71l40 71l39 -71z
M444 577q0 -35 -13 -65.5t-35 -54.5q0 31 14.5 61.5t33.5 63.5v-5zM276 786q0 4 -4 9.5t-14 5.5v-12h-2v12q-5 0 -10.5 -5.5t-5.5 -9.5h36zM772 789q-8 0 -11 -5t-3 -10h34q0 5 -5 10t-10 5v-11h-5v11zM498 409q-6 0 -8.5 -5t-2.5 -10h35q0 5 -4.5 10t-10.5 5v-12h-9v12z
M482 9h-1l-2 1l-1 1v1q-1 1 -2 1h-1l-1 1h-3l-1 1h-2l-6 3q2 0 3 -1q5 0 9 -2h7q5 0 6 -3v-4h-2zM557 18q-2 -1 -11 -3l13 5h1q0 1 2 2h-1l6 2q-7 -5 -10 -6zM441 22l3 -2h-1l8 -3l7 -2l-13 5q-3 3 -9 4l1 -1h2l1 -1h1zM457 22h-3q3 -3 8 -4zM482 9h-1l-2 1l-4 3h-1l2 -1
q4 -4 9 -4zM325 230q0 1 4 1l-4 -2v1zM612 46q-3 0 -4 -3zM373 313l-1 -3q2 3 3 6q-1 -1 -2 -3zM568 356l-2 3l1 -3h1zM426 351q2 1 4 1q-3 -1 -4 -1zM622 316l3 -3q-1 0 -3 3zM436 356l-2 -1l-1 -1q1 0 2 1zM441 22l2 -2q-1 0 -2 2zM473 14h-2l3 -1zM536 19h1l1 1zM603 338
l-3 1q2 0 3 -1zM336 253l1 2q-1 -1 -1 -2z" />
    <glyph glyph-name="uniE602" unicode="&#xe602;" 
 />
    <glyph glyph-name="uniE603" unicode="&#xe603;" 
 />
    <glyph glyph-name="uniE604" unicode="&#xe604;" 
 />
    <glyph glyph-name="uniE605" unicode="&#xe605;" 
 />
    <glyph glyph-name="uniE606" unicode="&#xe606;" 
 />
    <glyph glyph-name="uniE607" unicode="&#xe607;" 
 />
    <glyph glyph-name="uniE608" unicode="&#xe608;" 
 />
    <glyph glyph-name="uniE609" unicode="&#xe609;" 
 />
    <glyph glyph-name="uniE60A" unicode="&#xe60a;" 
 />
    <glyph glyph-name="uniE60B" unicode="&#xe60b;" 
 />
    <glyph glyph-name="uniE60C" unicode="&#xe60c;" 
 />
    <glyph glyph-name="uniE60D" unicode="&#xe60d;" 
 />
    <glyph glyph-name="uniE60E" unicode="&#xe60e;" 
 />
    <glyph glyph-name="uniE60F" unicode="&#xe60f;" 
 />
    <glyph glyph-name="uniE610" unicode="&#xe610;" 
 />
    <glyph glyph-name="uniE611" unicode="&#xe611;" 
 />
    <glyph glyph-name="uniE612" unicode="&#xe612;" 
 />
    <glyph glyph-name="uniE613" unicode="&#xe613;" 
 />
    <glyph glyph-name="uniE614" unicode="&#xe614;" 
 />
    <glyph glyph-name="uniE615" unicode="&#xe615;" 
 />
    <glyph glyph-name="uniE616" unicode="&#xe616;" 
 />
    <glyph glyph-name="uniE617" unicode="&#xe617;" 
 />
    <glyph glyph-name="uniE618" unicode="&#xe618;" 
 />
    <glyph glyph-name="uniE619" unicode="&#xe619;" 
 />
    <glyph glyph-name="uniE61A" unicode="&#xe61a;" 
 />
    <glyph glyph-name="uniE61B" unicode="&#xe61b;" 
 />
    <glyph glyph-name="uniE61C" unicode="&#xe61c;" 
 />
    <glyph glyph-name="uniE61D" unicode="&#xe61d;" 
 />
    <glyph glyph-name="uniE61E" unicode="&#xe61e;" 
 />
    <glyph glyph-name="uniE61F" unicode="&#xe61f;" 
 />
    <glyph glyph-name="uniE620" unicode="&#xe620;" 
 />
    <glyph glyph-name="uniE621" unicode="&#xe621;" 
 />
    <glyph glyph-name="uniE622" unicode="&#xe622;" 
 />
    <glyph glyph-name="uniE623" unicode="&#xe623;" 
 />
    <glyph glyph-name="uniE624" unicode="&#xe624;" 
 />
    <glyph glyph-name="uniE625" unicode="&#xe625;" 
 />
    <glyph glyph-name="uniE626" unicode="&#xe626;" 
 />
    <glyph glyph-name="uniE627" unicode="&#xe627;" 
 />
    <glyph glyph-name="uniE628" unicode="&#xe628;" 
 />
    <glyph glyph-name="uniE629" unicode="&#xe629;" 
 />
    <glyph glyph-name="uniE62A" unicode="&#xe62a;" 
 />
    <glyph glyph-name="uniE62B" unicode="&#xe62b;" 
 />
    <glyph glyph-name="uniE62C" unicode="&#xe62c;" 
 />
    <glyph glyph-name="uniE62D" unicode="&#xe62d;" 
 />
    <glyph glyph-name="uniE62E" unicode="&#xe62e;" 
 />
    <glyph glyph-name="uniE62F" unicode="&#xe62f;" 
 />
    <glyph glyph-name="uniE630" unicode="&#xe630;" 
 />
    <glyph glyph-name="uniE631" unicode="&#xe631;" 
 />
    <glyph glyph-name="uniE632" unicode="&#xe632;" 
 />
    <glyph glyph-name="uniE633" unicode="&#xe633;" 
 />
    <glyph glyph-name="uniE634" unicode="&#xe634;" 
 />
    <glyph glyph-name="uniE635" unicode="&#xe635;" 
 />
    <glyph glyph-name="uniE636" unicode="&#xe636;" 
 />
    <glyph glyph-name="uniE637" unicode="&#xe637;" 
 />
    <glyph glyph-name="uniE638" unicode="&#xe638;" 
 />
    <glyph glyph-name="uniE639" unicode="&#xe639;" 
 />
    <glyph glyph-name="uniE63A" unicode="&#xe63a;" 
 />
    <glyph glyph-name="uniE63B" unicode="&#xe63b;" 
 />
    <glyph glyph-name="uniE63C" unicode="&#xe63c;" 
 />
    <glyph glyph-name="uniE63D" unicode="&#xe63d;" 
 />
    <glyph glyph-name="uniE63E" unicode="&#xe63e;" 
 />
    <glyph glyph-name="uniE63F" unicode="&#xe63f;" 
 />
    <glyph glyph-name="uniE640" unicode="&#xe640;" 
 />
    <glyph glyph-name="uniE641" unicode="&#xe641;" 
 />
    <glyph glyph-name="uniE642" unicode="&#xe642;" 
 />
    <glyph glyph-name="uniE643" unicode="&#xe643;" 
 />
    <glyph glyph-name="uniE644" unicode="&#xe644;" 
 />
    <glyph glyph-name="uniE645" unicode="&#xe645;" 
 />
    <glyph glyph-name="uniE646" unicode="&#xe646;" 
 />
    <glyph glyph-name="uniE647" unicode="&#xe647;" 
 />
    <glyph glyph-name="uniE648" unicode="&#xe648;" 
 />
    <glyph glyph-name="uniE649" unicode="&#xe649;" 
 />
    <glyph glyph-name="uniE64A" unicode="&#xe64a;" 
 />
    <glyph glyph-name="uniE64B" unicode="&#xe64b;" 
 />
    <glyph glyph-name="uniE64C" unicode="&#xe64c;" 
 />
    <glyph glyph-name="uniE64D" unicode="&#xe64d;" 
 />
    <glyph glyph-name="uniE64E" unicode="&#xe64e;" 
 />
    <glyph glyph-name="uniE64F" unicode="&#xe64f;" 
 />
    <glyph glyph-name="uniE650" unicode="&#xe650;" 
 />
    <glyph glyph-name="uniE651" unicode="&#xe651;" 
 />
    <glyph glyph-name="uniE652" unicode="&#xe652;" 
 />
    <glyph glyph-name="uniE653" unicode="&#xe653;" 
 />
    <glyph glyph-name="uniE654" unicode="&#xe654;" 
 />
    <glyph glyph-name="uniE655" unicode="&#xe655;" 
d="M735 630q-8 0 -12.5 -1t-7.5 -4q-5 -2 -8 -3q5 -7 5 -15t-2 -14q-2 -9 -8 -14q8 -3 19 -15t21 -27.5t17 -29.5t7 -22q4 -11 15.5 -34.5t44.5 -69.5q17 -22 24.5 -40t10.5 -34t3.5 -31t2.5 -27q0 -11 2 -19.5t6 -16.5l7 3q6 -3 9 -8q4 -4 5 -11.5t-5 -19.5
q-3 -13 -13.5 -19t-19.5 -9q-7 -10 -15.5 -13.5t-17.5 -4.5t-18 1q-15 -21 -33 -30.5t-34 -12.5t-29.5 -3t-16.5 -3q-2 -2 -11.5 -5t-22 -5.5t-25.5 -4.5t-21 0q-9 0 -19.5 3.5t-19 9.5t-13.5 11t-4 7q8 9 18 15t20 11q10 4 23 7h-41q-10 3 -21.5 3.5t-24.5 2t-25.5 4.5
t-21.5 7q0 2 4 7t11 10.5t18 9.5t23 4h78q1 0 5 2t7 4l7 7q-10 12 -14 26t-2 23q2 11 8 23q1 9 1 17t1 14q0 6 2 13q0 13 -1.5 18t-3.5 6q-1 1 -3 0l-6 -11q-1 -6 -1.5 -11t0.5 -11q1 -4 -7.5 -10t-19.5 -9t-21.5 -4.5t-12.5 0.5q-7 4 -9 12q-1 1 0 4q-6 6 -4.5 23t4 37
t6.5 37t5 24q5 4 4 14.5t-3.5 21.5t-4 22t-1.5 18q0 4 1 11.5t4 15t5 13t5 7.5q1 2 2.5 11t1.5 18.5t-2 18.5t-6 13q-6 3 -12 10t-11 14t-9 12t-4 8q-3 8 -7 15.5t-7 15t-7 13t-4 9.5q0 11 4.5 18.5t9.5 12.5t10.5 7t8.5 2q11 0 27.5 5t32.5 3q2 -2 10 -3t18.5 -2t20.5 -3
t18 -8q18 -12 20 -16q2 -2 1 -4q7 6 15.5 18.5t17 27t17 27.5t14.5 19q8 5 20.5 11t26 10.5t24.5 3.5t15 -9q0 -3 -4 -8t-9.5 -10.5t-10.5 -13t-5 -12.5q-2 -8 -11.5 -20t-18.5 -22q-11 -12 -24 -24q5 2 14 6q13 4 27 6.5t28 3t21 -2.5l24 -5q18 -2 35.5 -4.5t31 -6.5
t13.5 -7q0 -5 -2.5 -7.5t-8.5 -7t-17.5 -11t-27.5 -17.5q-16 -14 -40.5 -20t-48.5 -7t-43 1.5t-24 3.5zM249 257q-40 -24 -60 -51.5t-30 -44.5q-10 6 -19.5 12.5t-16.5 15.5q-8 12 -12 24t-7 28l15 18t21.5 24.5t27 26t32.5 23.5q31 18 44 39.5t16 32.5q13 -11 25 -36
q-4 -13 -18.5 -33t-52.5 -43q-44 -27 -64.5 -56.5t-26.5 -47.5l14 19.5t22.5 27.5t30.5 29.5t37 27.5q35 18 47.5 40t13.5 36q8 -14 13 -29.5t8 -30.5q-11 -10 -23.5 -23.5t-36.5 -28.5zM166 632q2 -3 3 -4v6l-6 4v4q5 -3 6 -3.5t2 -4.5q0 -3 3 -4q2 -1 3 -2q0 1 1.5 2
t1.5 4q3 4 6 4q1 0 4 1l1 1l1 2l4 5q0 -3 3 -5v-1l1 1l8 -8q4 0 5 -2.5t1 -5.5q2 3 2.5 5.5t2.5 6.5l5 6v-2q2 0 3 2.5t6 7.5q0 -5 1.5 -5.5t1.5 -4.5q3 -3 4 -9v5q0 2 -1 6q-1 2 -3 3q3 0 3.5 -1t2.5 -2q1 0 2 -2l4 -4q1 0 1 -4l8 8q0 4 2.5 7.5t4.5 5.5q0 -1 -2 -6
q0 -2 -2 -2v-5q2 5 4 5q0 3 0.5 5.5t3.5 4.5q4 -2 4.5 -2t0.5 -3h4q2 -23 4.5 -43.5t-1.5 -39.5q-1 -2 -2.5 -2.5t-4.5 -5.5q0 5 2 5.5t2 2.5v6q-1 0 -1 -2q0 -5 -3 -7l-1 -2q-1 -3 -1 -4.5t-3 -2.5q-3 3 -3.5 4.5t-0.5 4.5q-2 0 -4 5v-5q0 -3 2 -4.5t2 -4.5q-2 3 -4.5 4.5
t-2.5 4.5q-3 0 -4 2.5t-4 6.5q0 -4 -0.5 -6.5t-4.5 -7.5l-2 -3q-3 -2 -6 -3q0 2 2 2t2 4v6q-1 -1 -1 -3q0 -4 -3 -7l-2 -2q-1 0 -1 -5l-6 5q-1 1 -3 2v-2l-1 1q-3 1 -4 1q-2 3 -2.5 6t-2.5 3q0 -3 -1 -4.5t-5 -4.5q-4 -1 -5 -1.5t-3 -5.5l-1 1v-1q-3 -1 -3 -3q-3 2 -4 3
l-4 5v-2l-2 2l-6 2q-1 0 -2 2q-1 4 -1 6l-3 -6q-1 -2 -3 -2q-1 -1 -2 -4t-6 -3q0 1 2 3q2 3 4 4v7q-1 -3 -3 -6q-3 -1 -3 -3q0 -4 -2 -5t-2 -3q-1 2 -5 3l-1 2v-1q-1 4 -3 4l-5 2q0 3 -3 4.5t-3 3.5q-1 -2 -1 -4q-1 -1 -1 -4q-2 0 -7 -1l-2 -1v2q-1 -2 -2 -2q-4 0 -7 -5
q0 5 -1 5q-5 2 -6 4t-3 2q0 5 -3 7q-2 1 -2 4q-1 -3 -3 -4q-3 -2 -5 -2q0 -3 -2 -5l-4 -2q1 1 1 2v5l-4 -5q-1 -1 -2 -4l-2 2q-1 2 -1 5q-1 2 -2 2h-1q1 0 1 -5q-3 5 -4.5 6.5t-2.5 1.5q-4 19 -1.5 37t4.5 36q0 10 4 10q0 3 2.5 3t2.5 2l2 -4q1 -3 4 -6v5q2 -2 3 -4
q2 -2 2 -6q2 -3 5 -3.5t3 -4.5q1 0 2 3q0 1 1.5 2t1.5 3q2 0 3 2.5t6 2.5v-1q1 1 1 6q2 -4 7 -7l2 -3q0 -1 2 -2q4 -2 7 -2q0 -4 1 -6q0 -3 1 -4q0 1 3 4q1 1 3 2q2 4 5 4q2 1 3 3v-1q0 1 2.5 2.5t3.5 4.5q0 -3 2 -5q1 -1 2 -4q0 -4 3 -6zM224 658l-1 2q-3 1 -4 3l-2 2
q-1 1 -3 6q0 -5 -1 -6t-5 -2l-8 -8h-1q-3 0 -3 -3l-4 3h-2q-6 0 -10 8q-1 1 -2 1q-1 2 -1 5l-1 -1l-2 -4q-1 0 -3 -1q-1 -5 -2 -6.5t-6 -1.5l2 1l1 4l3 3v5q-1 -3 -3 -4q-3 -2 -3 -7q0 -2 -2 -2t-2 -3q-1 3 -5 3h-1q-1 1 -3 2q-3 1 -5 6q0 1 -3 2t-3 4q-1 -3 -1 -4
q-1 -1 -1 -2q-2 0 -3 -1t-4 -2q-2 -2 -2 -3v3l-2 -5h-7q0 1 -1 2q-5 5 -6 6.5t-3 1.5q0 5 -3 8q-2 1 -2 4q-1 -3 -3 -3q-3 -3 -5 -3q0 -5 -2 -6q-3 -1 -5 -1l2 1q-3 0 -4 -1t-2 -1v8q2 0 2 2v5q12 36 37 60t53 24q26 0 51.5 -24t39.5 -60q-1 0 -3 -2l-1 -2l4 -3q0 -2 2 -3
q1 -3 2 -3q-1 -1 -2 -1l-2 -1q-4 0 -4 8q-2 0 -4 3v-3q0 -5 2 -6t2 -2l-5 2q-2 1 -2 6q-3 0 -4 1.5t-4 5.5q0 -4 -0.5 -6t-4.5 -7q0 -1 -2.5 -2t-5.5 -6v3q-1 -3 -2 -3q-1 -1 -1 -2h-6l-1 2l-2 6v-5zM329 394l-20 27v19l20 -26l28 32l-28 37l-20 -30q0 7 2 11t2 10l16 22
l24 -26l4 -9l28 35l24 -26l5 -9l27 35l19 -26l9 -9l29 35l20 -22v-11q0 -3 4 -10l-24 30l-24 -37l24 -32l24 26v-9q0 -3 -4 -10l-20 -27l-29 35l-9 -8l-19 -27l-27 35l-5 -8l-24 -27l-28 35l-4 -8zM260 252q38 24 49 48q6 -33 0 -66q-8 -5 -13.5 -10t-10.5 -8
q-25 -15 -41 -31.5t-27 -31.5h-14q-8 0 -18.5 1.5t-21.5 6.5l37.5 44t59.5 47zM313 485q7 16 9.5 28t10.5 24q37 -12 81 -12q48 0 79 12q9 -12 13.5 -24t7.5 -28l-16 20l-29 -35l-19 26l-9 9l-27 -35l-20 26l-9 9l-28 -35l-20 26l-8 9zM188 337q-36 -23 -55 -49t-29 -43
q-5 15 -4 33t9 36q9 11 23 23t31 24q31 18 44 35.5t17 32.5q11 -2 19 -8t14 -11q-3 -14 -19 -33t-50 -40zM87 537q0 5 -2 5q0 1 -3 1q-1 -1 -2 -1v5q0 2 2.5 3t2.5 5q1 -4 2 -6t3 -2l4 -3q2 -3 2 -7q2 0 5 -2q2 -2 3 -4q0 2 2.5 3t2.5 3q2 0 3 2.5t6 2.5q1 1 1 5q3 -4 7 -5
q1 -1 2 -3q0 -2 2 -4q4 -1 7 -1q0 -3 1 -7q0 -2 1 -6q0 4 3 6q1 2 3 4t5 3q2 1 3 1q1 1 1 2q4 2 5 5q0 -3 2 -5l2 -2v2l8 -6q0 -5 3 -6q2 0 3 -4q0 4 1.5 4.5t1.5 5.5q3 2 6.5 3t5.5 3l4 5q0 -3 2 -5l1 -1l1 1q2 0 3 -2t5 -4q6 0 6 -10q2 4 2.5 7t2.5 6l5 3q2 0 3 3t6 7
q0 -4 1.5 -5t1.5 -5q3 -2 3 -4q0 -1 1 -2v6l-4 5q3 0 3.5 -1t2.5 -2q1 0 2 -2q4 -2 4.5 -3t0.5 -3q3 2 4 4t4 2q0 4 2.5 7t4.5 6q0 -3 -2 -4t-2 -4v-5q2 5 4 5q0 3 0.5 6t3.5 7q4 -4 4.5 -5t0.5 -3v-5h-5q-1 0 -2 -1q-2 -2 -2 -4h4q-10 -22 -32 -37t-59 -15q-39 0 -61 15
t-31 37h2zM510 381q-18 -9 -42 -14.5t-54 -5.5q-28 0 -52.5 5.5t-40.5 14.5l-6 15q-2 8 -2 14l16 -24l8 8l20 27l28 -35l9 8l20 27l27 -35l9 8l19 27l29 -35l20 28q0 -9 -2 -16.5t-6 -16.5zM501 369q-11 -20 -33 -32.5t-54 -12.5q-35 0 -56 12.5t-34 32.5q17 -10 41 -12.5
t49 -2.5q26 0 48.5 2.5t38.5 12.5zM112 330q6 21 15.5 39.5t21 32.5t26.5 23t28 9q8 0 11 -1t5 -4q-4 -11 -19 -29t-47 -39q-14 -6 -23.5 -14t-17.5 -17zM474 569q-14 -2 -28 -2.5t-32 -0.5q-16 0 -30.5 0.5t-26.5 2.5q12 15 26.5 23.5t30.5 8.5q18 0 32 -8.5t28 -23.5z
M360 446l25 -32l29 32l-29 37zM418 446l23 -32l28 32l-28 37zM309 446v5l20 26l24 -31l-24 -28zM421 446l20 31l25 -31l-25 -28zM364 446l21 31l24 -31l-24 -28zM490 547q-32 -13 -76 -13q-21 0 -40.5 2.5t-36.5 10.5q3 2 3.5 3t0.5 5q18 -7 36.5 -10t36.5 -3q44 0 71 13
q4 -4 4.5 -5t0.5 -3zM227 155q27 33 71 58q0 3 1 3t6 4q-9 -26 -28 -43t-50 -22zM364 446l21 -25l20 25l-20 28zM309 446l20 -25l20 25l-20 28zM421 446l20 -25l19 25l-19 28zM485 557q-15 -5 -32.5 -7.5t-38.5 -2.5q-18 0 -36 2.5t-33 7.5l4 4q14 -4 30.5 -5t34.5 -1
q35 0 67 6q0 -2 1 -3q2 -1 3 -1zM441 429l-16 17l16 20l17 -20zM498 466l16 -20l-16 -17l-13 17zM385 429l-12 17l12 20l16 -20zM345 446l-16 -17l-12 17l12 20zM177 663q3 -5 3 -6.5t4 -1.5q0 -2 3 -3.5t5 -4.5q-8 0 -8 -5l-7 -8q0 4 -3 4.5t-5 3.5q-1 2 -3 2q-3 1 -4 2
t-3 1q3 3 6.5 4.5t3.5 3.5q2 0 5 1.5t3 6.5zM139 663q5 -5 5.5 -6.5t4.5 -1.5q0 -2 2.5 -3.5t5.5 -4.5q-3 0 -5.5 -0.5t-2.5 -4.5q-4 0 -4.5 -2t-5.5 -2q-2 0 -2.5 3t-3.5 6q-2 0 -4 1l-2 2q-1 2 -4 2q3 2 4 2t2 1h4zM139 557q5 -1 5.5 -1.5t4.5 -5.5q0 -3 2 -3h6
q-3 -4 -5.5 -5t-2.5 -5q-4 0 -4.5 -1.5t-5.5 -1.5q-2 0 -2.5 2.5t-3.5 5.5l-4 2q-2 3 -6 3q3 1 4 1t2 1q2 1 4 1q3 5 3.5 5.5t2.5 1.5zM214 557q2 -1 2.5 -1.5t2.5 -5.5q5 0 5 -1l3 -2q-2 0 -2.5 -2.5t-5.5 -2.5q-2 -3 -2.5 -5.5t-2.5 -2.5q-2 1 -4 1t-3 1t-4 1q0 4 -1.5 5
t-1.5 5l3 3q5 5 8 5.5t3 1.5zM177 557q3 -1 3 -4t4 -3q0 -3 3 -4t5 -4q-8 0 -8 -5q-4 0 -4 -2t-3 -4q0 2 -3 3t-5 3q0 5 -10 5q3 3 6.5 4t3.5 4q2 0 5 3t3 4zM104 665q0 -1 2.5 -2t5.5 -6q1 -2 2 -2t2.5 -0.5t1.5 -2.5q-3 0 -4 -2q-2 -2 -2 -3q-3 0 -5.5 -0.5t-2.5 -4.5
q-5 4 -5.5 7t-2.5 3l-9 5q4 0 5 3t4 3q2 0 2.5 1t5.5 1zM106 558l6 -3l6 -5q0 -2 -1.5 -2t-2.5 -1h-2q-3 -4 -5.5 -5t-2.5 -5q-5 4 -5.5 7t-2.5 3q-3 2 -4 5t-5 3l4 2h5q2 0 2.5 2t5.5 2zM249 665q1 0 5 -1q1 0 3 -1q2 0 3.5 -3t3.5 -3l-4 -2q-1 0 -3 -3l-8 -10l-5 5
q-1 1 -2 1l-3 2q-1 2 -3 2q0 5 8 5q0 3 2 7q1 0 3 1zM214 663q2 -5 3 -6l2 -2h5q1 0 3 -3q-2 0 -2.5 -2.5t-5.5 -2.5q-2 -3 -2.5 -6t-2.5 -3l-4 2q-3 2 -7 2q0 2 -1 4q-1 1 -2 1q0 3 1.5 4.5t1.5 3.5q11 0 11 8zM518 446l-20 28l-21 -28l21 31l24 -26v-5l-24 -28l-21 28
l21 -25zM433 446l8 -12l13 12l-13 15zM249 561q2 0 2.5 -1t2.5 -2q1 -1 3 -1t3 -1l2 -1q-2 0 -2 -3q-1 -3 -3 -5t-3 -4l-3 -3q0 -1 -2 -3q0 4 -2.5 5t-2.5 5q-8 0 -8 3l3 2l3 1q1 2 2 2q0 1 2 3q1 2 3 3zM510 446l-12 15l-8 -15l8 -12zM321 446l8 -12l12 12l-12 15zM169 405
q-10 0 -10 -9q0 -7 10 -7q6 0 7 3t1 4q0 4 -1 6.5t-7 2.5zM378 446l7 -12l11 12l-11 15zM203 317q-2 0 -4.5 -2t-2.5 -6q0 -3 2.5 -6t4.5 -3q5 0 8 3t3 6q0 8 -11 8zM149 369q8 0 8 8q0 3 -2.5 6t-5.5 3q-4 0 -7 -3t-3 -6q0 -2 3 -5t7 -3zM133 235q3 0 4.5 3.5t1.5 6.5
q0 6 -1.5 6.5t-4.5 0.5q-5 0 -7.5 -0.5t-2.5 -6.5q0 -10 10 -10zM249 354q-9 0 -9 -9q0 -3 3 -5.5t6 -2.5t5.5 2.5t2.5 5.5q0 9 -8 9zM268 225q9 0 9 9q0 4 -2.5 5.5t-6.5 1.5q-3 0 -5.5 -1.5t-2.5 -5.5q0 -9 8 -9zM200 257q0 -8 8 -8q9 0 9 8q0 2 -2.5 5t-6.5 3t-6 -3
t-2 -5zM214 386q-5 0 -8 -3t-3 -6q0 -8 11 -8q5 0 5 8q0 3 -1.5 6t-3.5 3zM244 209q8 0 8 7q0 9 -8 9q-5 0 -6.5 -3t-1.5 -6q0 -2 1.5 -4.5t6.5 -2.5zM163 350q-3 0 -4.5 -3.5t-1.5 -4.5q0 -8 1.5 -8.5t4.5 -0.5q7 0 7.5 0.5t0.5 8.5q0 1 -0.5 4.5t-7.5 3.5zM133 321
q0 -3 2 -5t4 -2q5 0 7.5 2t2.5 5q0 9 -10 9q-6 0 -6 -9zM192 421q-2 0 -5 -1t-3 -6q0 -9 8 -9q3 0 5.5 3t2.5 6q0 5 -2.5 6t-5.5 1zM236 281q-9 0 -9 -8q0 -3 3.5 -5.5t5.5 -2.5q3 0 5.5 2.5t2.5 5.5t-2.5 5.5t-5.5 2.5zM118 216q1 0 3 2.5t2 6.5q0 9 -5 9q-9 0 -9 -9
q0 -4 2 -6.5t7 -2.5zM233 410q-5 0 -7 -2.5t-2 -5.5q0 -8 9 -8q7 0 7 8q0 3 -2.5 5.5t-4.5 2.5zM285 317q-8 0 -8 -8q0 -3 2 -6t6 -3q3 0 5 3t2 6q0 4 -2 6t-5 2zM224 337q-4 0 -5.5 -2t-1.5 -5q0 -9 7 -9q2 0 5.5 2t3.5 7q0 3 -3.5 5t-5.5 2zM188 365q-8 0 -8 -9q0 -6 8 -6
t8 6q0 9 -8 9zM149 180q3 0 5.5 1.5t2.5 7.5q0 4 -8 4q-4 0 -7 -0.5t-3 -3.5q0 -6 3 -7.5t7 -1.5zM260 300q-3 0 -5.5 -2t-2.5 -5q0 -9 8 -9q3 0 5.5 3t2.5 6t-2.5 5t-5.5 2zM210 189h10q4 0 4 4q0 6 -3 8.5t-4 2.5q-3 0 -6 -2.5t-3 -8.5q0 -4 2 -4zM298 249l3 2q4 2 4 6
q0 2 -4 4l-3 4q-5 0 -7.5 -3t-2.5 -5q0 -8 10 -8zM177 300q-4 0 -6 -2t-2 -5q0 -9 8 -9q7 0 7 9q0 3 -2 5t-5 2zM118 289q1 0 3 2.5t2 5.5q0 9 -5 9q-9 0 -9 -9q0 -3 2 -5.5t7 -2.5zM196 161q3 0 5 2t2 6q0 8 -7 8q-3 0 -5.5 -2.5t-2.5 -5.5q0 -4 2.5 -6t5.5 -2zM153 260
q6 0 6 9q0 3 -2 5.5t-4 2.5q-4 0 -6 -2.5t-2 -5.5q0 -9 8 -9zM184 225q3 0 5.5 2t2.5 7q0 1 -2.5 4t-5.5 3q-4 0 -5.5 -3t-1.5 -4q0 -5 1.5 -7t5.5 -2zM163 204q8 0 8 5q0 11 -8 11q-6 0 -6 -11q0 -5 6 -5zM268 377q-6 0 -7 -2t-1 -6q0 -3 1 -5.5t7 -2.5q4 0 4.5 2.5
t0.5 5.5q0 8 -5 8zM490 446l8 -8l7 8l-7 12zM381 446l4 12l9 -12l-9 -8zM324 446l5 12l8 -12l-8 -8zM438 446l3 12l9 -12l-9 -8zM324 446l5 -6l4 6l-4 7zM233 671q-6 0 -6 -6l1 -1q3 -1 5 -1q0 1 2 1l1 1q0 1 -1 5q-1 1 -2 1zM381 446l4 -6l4 6l-4 7zM268 575q-1 0 -2 -1
q-2 -2 -2 -5q1 -1 2 -1q2 -2 2 1q2 0 3 2l1 1q1 1 1 3h-5zM438 446l3 -6l4 6l-4 7zM268 647q-1 0 -2 -1q-2 -2 -2 -4q1 -2 2 -2q2 -2 2 2q2 0 3 2h1q1 1 1 3h-5zM192 531q0 -6 4 -6q2 0 3 1v1q1 1 1 4h-8zM233 566q-6 0 -6 -5h9q0 2 -1 5h-2zM233 638q-6 0 -6 -4l1 -1
q2 -1 5 1h3l-1 4h-2zM80 575q0 -2 2 -4q0 -2 3 -2q0 -1 1 -2l1 1v1q0 6 -2 6h-5zM166 527q2 -2 3 -4v8l-6 3q0 -3 3 -7zM80 647q0 -2 2 -3q0 -2 3 -2q0 -2 1 -3l1 1v2q0 5 -2 5h-5zM196 561q-4 0 -4 -4h7v1q1 1 1 3h-4zM117 644q-3 -4 -5 -6v-5q0 1 2 3q4 3 4 6v4
q-1 -1 -1 -2zM118 557q0 3 -4 7l-2 4v-7l5 -4l1 -1v1zM196 634q-4 0 -4 -4h8q0 1 -1 3q-1 1 -3 1zM233 534q-6 0 -6 -3h6q1 -2 2 0q1 0 1 3h-3zM123 671q-4 0 -4 -6l4 -2v8zM117 539q-2 -2 -2.5 -3t-2.5 -2v-5q1 3 2 4q4 2 4 4v4q-1 -1 -1 -2zM123 566q-4 0 -4 -5h4v5z
M118 663q0 1 -4 5h-2v-3q5 -1 5.5 -2t0.5 -2v2zM123 638q-4 0 -4 -4h4v4zM80 557l-4 -2v6zM187 558q0 5 -3 8q0 -2 2 -7q0 -2 1 -2v1zM196 665q-4 0 -4 -2h8l-1 1q-1 0 -3 1zM157 531q0 -6 2 -6v6h-2zM119 534q0 -3 4 -3v3h-4zM238 663q2 1 2 2v6l-1 -3q0 -4 -3 -5v-2
q0 1 2 2zM203 525v6q-2 0 -3 1q2 -4 3 -7zM186 527q-2 -3 -2 -6q3 4 3 6v2q0 -1 -1 -2zM187 664q0 2 -3 7q0 -2 2 -7l1 -1v1zM159 634q-2 0 -2 -4h2v4zM157 561q0 -4 2 -4v4h-2zM131 564v1l-3 -8q3 3 3 7zM203 557v4q-1 -4 -3 -6v-2q0 2 3 4zM202 632l1 -3v5l-2 2q1 -2 1 -4
zM149 525l3 6q-3 -2 -3 -6zM277 556q-1 1 -2 1h-2q1 0 3 1h1v-2zM159 665q-2 0 -2 -2h2v2zM149 632v-3l1 3q1 1 1 2q-2 -1 -2 -2zM203 663v3l-1 -2v-3zM188 553q2 -3 4 -3zM186 630q-2 -1 -2 -4q2 3 3 5zM510 377h-2q1 0 2 2v-2zM151 663l-1 1h-1q0 -1 2 -1zM76 569l1 -2
q0 1 -1 4v-2zM227 542q-2 -2 -2 -3q1 1 2 3zM321 375l2 -1q-2 0 -2 1zM277 558l2 3q0 -1 -2 -3zM91 547l-2 1l1 -1h1zM273 550v1l1 -1h-1z" />
    <glyph glyph-name="uniE656" unicode="&#xe656;" 
 />
    <glyph glyph-name="uniE657" unicode="&#xe657;" 
 />
    <glyph glyph-name="uniE658" unicode="&#xe658;" 
 />
    <glyph glyph-name="uniE659" unicode="&#xe659;" 
 />
    <glyph glyph-name="uniE65A" unicode="&#xe65a;" 
 />
    <glyph glyph-name="uniE65B" unicode="&#xe65b;" 
 />
    <glyph glyph-name="uniE65C" unicode="&#xe65c;" 
 />
    <glyph glyph-name="uniE65D" unicode="&#xe65d;" 
 />
    <glyph glyph-name="uniE65E" unicode="&#xe65e;" 
 />
    <glyph glyph-name="uniE65F" unicode="&#xe65f;" 
 />
    <glyph glyph-name="uniE660" unicode="&#xe660;" 
 />
    <glyph glyph-name="uniE661" unicode="&#xe661;" 
 />
    <glyph glyph-name="uniE662" unicode="&#xe662;" 
 />
    <glyph glyph-name="uniE663" unicode="&#xe663;" 
 />
    <glyph glyph-name="uniE664" unicode="&#xe664;" 
d="M836 445q21 -23 31 -52.5t9 -60.5q-2 -38 -17.5 -72t-44.5 -59q-26 -23 -58.5 -35.5t-67.5 -12.5h-137v40h129q30 -1 57.5 9t49.5 30q22 19 34.5 46t14.5 57q2 23 -5.5 44.5t-23.5 38.5t-36.5 26.5t-43.5 11.5q-17 1 -34 -4.5t-30 -18.5q-13 -11 -20.5 -27t-8.5 -33
q0 -14 4.5 -26.5t12.5 -22.5q10 -9 21.5 -15t24.5 -7q20 -1 35.5 13t16.5 34q1 11 -4.5 23.5t-13.5 21.5q-5 4 -10 7.5t-5 5.5q0 4 5.5 6t11.5 1q25 -6 41.5 -23t14.5 -44q-2 -37 -29.5 -61.5t-65.5 -22.5q-21 1 -39.5 10t-33.5 25q-14 16 -21 35.5t-6 40.5q2 26 13 49.5
t29 39.5q19 18 43 26t49 7q31 -2 59 -15t49 -36zM672 796q40 0 60.5 -34.5t19.5 -75t-24 -74t-72 -31.5q-42 1 -59 35t-12.5 74t27.5 73t60 33zM461 785q2 -40 26.5 -85.5t68.5 -52.5q-3 -21 -12 -38t-23 -22q-46 -18 -76.5 8.5t-40.5 66t2.5 78.5t54.5 45zM555 677l-3 1
q-4 0 -8 2l-10 6q-1 2 -3 3l-9 11l-3 3q-1 2 -3 3q-4 6 -7 12q0 1 -1 2l-1 3q-1 1 -1.5 2.5t-1.5 2.5l-2 4q-2 8 -5 17q-1 1 -2 4q0 2 -1 3l-1 4v2l-1 5q-5 25 -1 52q5 29 25 45q37 30 80 14q6 -2 13 -6q31 -16 34 -51q-44 -14 -66 -56q0 -1 -1 -2q0 -3 -1 -4l-3 -8
q-6 -11 -9 -24q-1 -1 -1 -3q-3 -9 -5 -18q0 -3 -1 -6l-1 -13v-10zM146 449h89v-174h-89v174zM338 449h89v-174h-89v174zM254 449h66v-174h-66v174zM385 621q8 0 11.5 -2t8.5 -10q5 -14 8.5 -36.5t2.5 -35.5q-5 24 -29 21q-25 -2 -67 -29q21 -5 36 -5.5t37 8.5q4 2 4.5 6
t-0.5 7q3 -3 5.5 -8.5t-3.5 -9.5q-7 -5 -14.5 -7.5t-14.5 -4.5q-20 -5 -36 -3t-26 9q4 42 28 72t49 28zM188 621q24 2 48.5 -28t27.5 -72q-9 -7 -25 -9t-36 3q-7 2 -14.5 4.5t-15.5 7.5q-4 4 -2.5 9.5t4.5 8.5q-1 -3 -0.5 -7t5.5 -6q22 -9 37 -8.5t36 5.5q-41 27 -66.5 29.5
t-28.5 -22.5q-2 14 1.5 36.5t9.5 36.5q3 8 7.5 10t11.5 2zM270 189l114 16v-65l-114 17v32zM338 502h120v-44h-120v44zM116 502h119v-44h-119v44zM524 539l36 -122l3 1l5 186q1 -2 3.5 -3.5t3.5 -3.5l-6 -178l2 -1l45 136h4l1 -2l-46 -137q1 -2 1 -4v-3q0 -2 -1.5 -5
t-5.5 -4v-30h-5v29q-4 1 -6.5 4.5t-2.5 5.5v2q0 1 1 3l-40 129zM254 502h66v-44h-66v44zM469 224l-27 -101h-24l26 101h25zM511 224l-26 -101h-24l25 101h25zM426 224l-26 -101h-2q-4 0 -5.5 2.5t-1.5 5.5v84q0 4 1.5 6.5t5.5 2.5h28zM530 224q3 0 5.5 -2.5t2.5 -6.5v-84
q0 -3 -2.5 -5.5t-5.5 -2.5h-27zM439 688q-2 12 -0.5 32t18.5 34q-17 -1 -28 -23.5t-6 -42.5h16zM297 514h-20q-4 0 -7.5 3.5t-3.5 7.5q0 6 3.5 9.5t7.5 3.5h20q3 0 6 -3.5t3 -9.5q0 -4 -3 -7.5t-6 -3.5zM762 383q-5 0 -8.5 -4.5t-3.5 -9.5q0 -6 3.5 -9t8.5 -3q6 0 10 3t4 9
q0 5 -4 9.5t-10 4.5zM583 159q5 0 9 4.5t4 9.5q0 6 -4 9t-9 3q-6 0 -9.5 -3t-3.5 -9q0 -5 3.5 -9.5t9.5 -4.5zM825 410q5 0 9 4t4 10q0 5 -4 8.5t-9 3.5t-9 -3.5t-4 -8.5q0 -6 4 -10t9 -4zM633 735q4 11 13 21t22 13q-13 4 -28 -5t-21 -29h14zM621 398q7 0 10.5 4t3.5 8
q0 6 -4 10t-10 4q-4 0 -8 -4t-4 -10q0 -4 4 -8t8 -4zM713 163q5 0 9.5 4t4.5 10q0 4 -4.5 8t-9.5 4t-8.5 -4t-3.5 -8q0 -6 3.5 -10t8.5 -4zM745 315q-6 0 -9.5 -4t-3.5 -10q0 -5 3.5 -8.5t9.5 -3.5q5 0 8.5 3.5t3.5 8.5q0 6 -3.5 10t-8.5 4zM767 455q5 0 9 3.5t4 9.5
q0 5 -4 8.5t-9 3.5q-6 0 -9.5 -3.5t-3.5 -8.5q0 -6 3.5 -9.5t9.5 -3.5zM647 159q5 0 9.5 4t4.5 9q0 6 -4.5 9t-9.5 3t-8.5 -3t-3.5 -9q0 -5 3.5 -9t8.5 -4zM851 289q5 0 9 3.5t4 8.5q0 6 -4 9.5t-9 3.5t-9 -3.5t-4 -9.5q0 -5 4 -8.5t9 -3.5zM825 235q5 0 9 4t4 8q0 6 -4 9.5
t-9 3.5t-9 -3.5t-4 -9.5q0 -4 4 -8t9 -4zM635 334q0 5 -3.5 8.5t-9.5 3.5q-4 0 -8.5 -3.5t-4.5 -8.5t4.5 -9t8.5 -4q6 0 9.5 4t3.5 9zM666 301q-4 0 -8.5 -4t-4.5 -8q0 -6 4.5 -9.5t8.5 -3.5q6 0 9.5 3.5t3.5 9.5q0 4 -3.5 8t-9.5 4zM684 455q5 0 8 3.5t3 9.5q0 5 -3 8.5
t-8 3.5q-6 0 -10 -3.5t-4 -8.5q0 -6 4 -9.5t10 -3.5zM855 352q5 0 9 3.5t3 7.5q0 6 -3.5 10t-8.5 4q-6 0 -9 -4t-3 -10q0 -4 3 -7.5t9 -3.5zM780 189q4 0 8 4t3 9q0 5 -3.5 8.5t-7.5 3.5q-6 0 -9.5 -3.5t-3.5 -8.5t3.5 -9t9.5 -4zM642 570l4 -17l-7 12l-7 -9l-9 11l-14 -4
l12 14q5 -3 10.5 -5t10.5 -2zM513 573l12 -14l-13 7l-1 -10l-13 7l-11 -12l4 19q6 -1 11.5 -0.5t10.5 3.5z" />
    <glyph glyph-name="uniE665" unicode="&#xe665;" 
d="M179 542v72h671v-71h-13v-282q-1 -11 -12 -32t-44 -39q0 -2 0.5 -3.5t0.5 -3.5v-12q0 -11 -7.5 -19t-19.5 -8h-9q-10 0 -17 6.5t-9 15.5q-22 -4 -47.5 -7.5t-58.5 -3.5h-198q-33 0 -59.5 3.5t-47.5 8.5q-2 -10 -9.5 -16.5t-17.5 -6.5h-9q-12 0 -19.5 8t-7.5 19v12
q0 2 0.5 4.5t1.5 3.5q-31 19 -42 39t-12 30v282h-15zM788 750q29 -22 45.5 -48t16.5 -54h-672q0 28 16.5 54t45.5 48q22 17 52 30.5t65.5 23.5t75 15.5t81.5 5.5q43 0 82.5 -5.5t74.5 -15.5t65 -24t52 -30zM325 576v-97q0 -93 60.5 -127t128.5 -34t128 34t60 127v97h-377z
M400 532h228v-32q0 -56 -36.5 -76.5t-77.5 -20.5q-42 0 -78 20.5t-36 76.5v32zM667 750q-19 20 -60 32.5t-93 12.5t-93.5 -12.5t-59.5 -32.5h306zM474 478q0 -8 5.5 -13.5t13.5 -5.5h42q8 0 13.5 5.5t5.5 13.5v16q0 8 -5.5 14t-13.5 6h-42q-8 0 -13.5 -6t-5.5 -14v-16z
M343 532h40v-39h-40v39zM646 532h39v-39h-39v39zM429 554q0 -6 -4 -10.5t-11 -4.5t-11 4.5t-4 10.5q0 7 4 11.5t11 4.5t11 -4.5t4 -11.5zM469 554q0 -6 -4 -10.5t-10 -4.5q-7 0 -11.5 4.5t-4.5 10.5q0 7 4.5 11.5t11.5 4.5q6 0 10 -4.5t4 -11.5zM550 554q0 -6 -5 -10.5
t-11 -4.5t-10.5 4.5t-4.5 10.5q0 7 4.5 11.5t10.5 4.5t11 -4.5t5 -11.5zM630 554q0 -6 -4.5 -10.5t-11.5 -4.5q-6 0 -10 4.5t-4 10.5q0 7 4 11.5t10 4.5q7 0 11.5 -4.5t4.5 -11.5zM510 554q0 -6 -5 -10.5t-11 -4.5t-10.5 4.5t-4.5 10.5q0 7 4.5 11.5t10.5 4.5t11 -4.5
t5 -11.5zM590 554q0 -6 -5 -10.5t-11 -4.5t-10.5 4.5t-4.5 10.5q0 7 4.5 11.5t10.5 4.5t11 -4.5t5 -11.5z" />
    <glyph glyph-name="uniE666" unicode="&#xe666;" 
d="M897 477q37 4 50 -26.5t-12 -31.5q-79 -5 -146.5 -31t-113.5 -53q-21 -46 -68.5 -81.5t-112.5 -51.5q-13 -3 -26 -5l-26 -4q-11 -1 -21 -1.5t-21 -0.5q-8 0 -15 0.5t-15 0.5l-15.5 2l-15.5 2q-45 6 -84 22.5t-68 39.5t-48 51.5t-26 60.5q-9 47 22.5 73t69.5 39
q9 3 18 5.5l19 5.5q-2 -3 -2.5 -6t-1.5 -6v-11q0 -4 2 -10q-45 -12 -71.5 -30t-26.5 -42q0 -34 56.5 -57.5t140.5 -29.5q8 -1 15.5 -1.5t15.5 -0.5t15 -0.5t15 -0.5q11 0 21.5 0.5t20.5 0.5l26.5 2t25.5 3q72 9 118 31.5t46 52.5q0 28 -35.5 48.5t-94.5 31.5l-2 12.5
t-3 12.5l7 6q18 -3 34 -7.5t31 -9.5q38 -13 62.5 -33.5t29.5 -45.5q42 24 95 45t115 29zM275 458q-7 8 -5.5 18t9.5 16l61 47l9 7q5 4 10.5 7t10.5 5q19 5 37.5 3t35.5 -12v-2h2q9 -6 16 -5.5t16 6.5l17 14l31 22q1 6 3.5 10.5t7.5 8.5l131 107q23 18 43.5 -9.5t-1.5 -43.5
l-139 -99q-4 -4 -9.5 -5t-10.5 -1l-48 -37q-2 -2 -4.5 -3.5t-2.5 -3.5q-4 -6 -4.5 -11.5t2.5 -11.5q0 -1 1 -2.5t1 -3.5q3 -10 3 -22.5t-3 -23.5q-4 -12 -11 -22t-18 -18l-70 -54q-5 -5 -12 -5.5t-14 2.5q-2 2 -4 3.5t-4 4.5l-22 29zM443 595q-71 42 -41.5 84.5t41.5 85.5
q1 8 1.5 17t-1.5 17q69 -43 40 -85.5t-40 -84.5q-3 -8 -3 -16.5t3 -17.5zM339 595q-69 42 -40 84.5t40 85.5q3 8 3 17t-3 17q10 -6 18 -12.5t13 -13.5q18 -20 14.5 -40.5t-14.5 -40.5l-17 -31t-14 -32q-1 -8 -1.5 -16.5t1.5 -17.5zM443 498q-4 4 -9.5 4t-9.5 -2l-54 -42
l-25 -19q-5 -3 -5.5 -9t2.5 -11q4 -3 9.5 -4t10.5 2l8 7l71 54l2 1q3 3 3 8t-3 10v1zM459 447q-3 3 -8 4t-8 -1q-1 -1 -2 -1l-1 -1l-65 -49l-3 -3q-1 -1 -2 -3v-8l1 -3l2 -2q3 -5 9 -5.5t10 2.5l51 39l13 11q5 3 6 9t-3 11zM315 479q-5 -4 -5.5 -9.5t3.5 -10.5q4 -4 9.5 -5
t9.5 3l38 30l26 19q5 4 5.5 9.5t-2.5 9.5q-4 5 -9.5 6t-9.5 -3l-10 -7l-30 -23z" />
    <glyph glyph-name="uniE667" unicode="&#xe667;" 
d="M718 268q0 -36 -24.5 -60t-60.5 -24h-250q-36 0 -60.5 24t-24.5 60v163h1q12 0 21 9t9 21v65q0 13 -9 21.5t-21 8.5h-1v19q0 2 0.5 3.5t0.5 3.5h418q1 -2 1 -4v-22q-12 0 -21 -8.5t-9 -21.5v-65q0 -12 9 -21t21 -9v-163zM302 642q3 8 36 25.5t153 6.5q3 -2 9.5 -3.5
t15.5 -2.5q8 -1 14.5 -0.5t10.5 1.5q119 -17 147.5 -42t29.5 -33v-1l-417 47zM699 526q0 8 5 13.5t14 5.5h75q9 0 14 -5.5t5 -13.5v-30q0 -8 -6 -13.5t-13 -5.5q-58 0 -66 -17l-9 -18q-8 0 -13.5 6t-5.5 13v65zM299 442l-9 18q-8 18 -67 18q-7 0 -13 5t-6 14v29
q0 8 5.5 13.5t13.5 5.5h76q8 0 13.5 -5.5t5.5 -13.5v-65q0 -7 -5.5 -13t-13.5 -6zM352 80l35 10q35 9 121 9q85 0 122 -9l37 -10v-12h-315v12zM285 746q2 4 4 8.5t3 8.5q2 4 2.5 9.5t0.5 10.5q-1 4 -2 8.5t-2 9.5q-2 3 -3 7t-2 7q-2 4 -4 6.5t-3 4.5l-4 3q-1 2 -1 3
q-1 2 -2 2l2 -1q2 -2 6 -7q1 -2 3.5 -4t4.5 -5q1 -3 3.5 -6.5t5.5 -6.5q1 -3 2 -5t2 -5q2 -2 3 -4.5t2 -4.5q1 -5 2.5 -11t2.5 -12q1 -7 1 -13.5t-1 -13.5q0 -4 -1.5 -7t-2.5 -6l-2 -9l-3 -4l-1 -2q0 -2 -1 -3l-1 -3q-1 -1 -1 -2.5t-1 -2.5t-1 -2.5t-1 -2.5q-2 -4 -3.5 -9.5
t-2.5 -10.5l-1 -9q-1 -5 -1 -9q-1 -4 -0.5 -8t0.5 -8q0 -3 0.5 -6t1.5 -6t2.5 -5.5t2.5 -4.5l3 -2v-1l2 -1v-1h1l1 -1q1 -2 1 -4t-1 -3q-1 -2 -3 -2h-4l-1 1q-1 0 -2 0.5t-2 0.5t-2 1t-2 1l-6.5 4.5t-6.5 5.5t-5 7.5t-4 9.5q-3 5 -4 10.5l-2 11.5t-0.5 12t0.5 12q1 7 2.5 13
t3.5 12q2 4 3 7l2 5q1 2 1 3.5t1 2.5l5 9l1 3l2 3v1l1 1q2 3 3.5 5t2.5 4zM227 651q-1 3 -1.5 7.5t-0.5 8.5q-1 8 0 17t4 18q0 1 0.5 2t1.5 2v4q1 1 1 2t1 2l1 3q2 4 3.5 7.5t2.5 6.5q2 4 2.5 7.5t1.5 7.5v5q0 4 -1 7q-1 7 -2.5 11t-4.5 8l-4 6l6 -6l5 -8q3 -3 5 -10
q1 -3 1.5 -6.5t0.5 -6.5q1 -4 1 -8v-9q-1 -3 -1 -7.5t-1 -9.5q-1 -2 -1.5 -4t-1.5 -4l-1 -2l-1 -1v-2q0 -1 -1 -2q-1 -4 -1.5 -7.5t-1.5 -7.5t-1 -8v-6q0 -4 0.5 -7.5t0.5 -7.5q1 -3 1.5 -6t1.5 -6q1 -6 3 -10.5t4 -6.5l1 -4l1 -1h1q1 -1 1.5 -2t-0.5 -2l-2 -2h-3v1
q-1 0 -3 1.5t-3 2.5q-4 3 -7 8t-5 11q-1 3 -2 6.5t-2 7.5zM473 668q-35 3 -84 -1.5t-61 -22.5l30 -4l6 7q6 6 28 12q20 6 50 7zM528 114l-1 1v4q-1 1 -1 3t1 3v4q1 1 1 2t1 2v2l1 1l1 2l1 3l1 1v1l1 1q0 1 1 2l1 1q1 2 1 3l4 4h1v-1l2 -1q0 -1 1 -3t2 -2v-2l2 -1q0 -1 1 -2
t1 -2t0.5 -2t0.5 -2h1v-1l1 -2q0 -1 0.5 -2t0.5 -2t0.5 -2t0.5 -2v-7l-1 -2v-1l-1 -1l-1 -2q0 -1 -1.5 -2t-2.5 -1q-6 -3 -11.5 -2t-8.5 5h-1v2zM473 112v4l-1 1v10q0 1 1 2q0 1 0.5 2t0.5 2l1 2v1h1v2l2 2v2l1 2v2l2 1q1 2 2 3l2 2v1l1 1h1v-1l2 -1q1 -1 2 -3l1 -2
q1 -1 1 -2l1 -1q1 -1 1.5 -2t0.5 -2t1 -2t1 -2v-3q1 -1 1 -2t1 -2v-4q1 -2 1 -4t-1 -3v-2l-1 -1v-1l-2 -4q-1 -1 -3 -1q-5 -3 -10.5 -2t-9.5 5h-1zM577 112l1 1v6q0 1 0.5 2.5t1.5 3.5q0 1 0.5 2t0.5 2l1 1q1 1 1 2l1 1v1h1l1 2l2 2q1 1 1.5 2t0.5 2l3 2v1l1 2h1l1 2l2 2
l1 -2l1 -1q1 -1 2 -2.5t1 -2.5q1 -1 1 -2l1 -1v-3l1 -1q1 -1 1 -2v-2q0 -1 0.5 -2t0.5 -2v-9q0 -1 -1 -2.5t-1 -2.5q-1 -1 -1 -2l-1 -1l-1 -2l-1 -1h-1v-1q-1 0 -2.5 -1t-3.5 -1q-5 -2 -10.5 0.5t-7.5 6.5zM506 698q3 1 6.5 1.5t5.5 -0.5q4 -1 7 -2l6 -2q5 -4 7.5 -7.5
t2.5 -7.5t-7.5 -5.5t-17.5 -0.5q-10 2 -17 4.5t-6 7.5q0 4 3.5 7t9.5 5zM366 106l-1 3v2l-1 5v3q0 1 0.5 2t0.5 2v8l2 4l1 3q1 1 2 2.5t1 2.5l2 2h1v-1h2v-2h2v-2l3 -2q1 -1 1 -2l2 -2v-2l2 -1v-2h1l1 -2q1 -1 1.5 -2t0.5 -2l1 -2l1 -1q1 -2 1 -3t1 -3v-2l-1 -2v-2l-2 -3
q0 -1 -1 -2q-5 -3 -10.5 -3.5t-10.5 3.5zM628 108h1v6q0 2 0.5 3t0.5 3l2 3v2q0 1 1 2v1l1 1h1v2l5 5q1 1 1 2l2 1v1l4 4l1 2h1v-1l2 -1q0 -1 1 -3t1 -3l1 -2h1q0 -1 0.5 -2t0.5 -2t0.5 -2t0.5 -3q0 -1 0.5 -2t0.5 -2v-7q-1 -2 -1.5 -4t-0.5 -3l-2 -2v-1l-1 -2h-1l-1 -1v-1
l-2 -1q-1 -1 -3 -1q-6 -1 -11 1t-7 7zM419 111v3l-2 3v13q0 1 1 3v1q0 2 1 2v2q0 1 1 2v1q1 1 1 2q1 2 1 3l2 2v1l1 1v1l5 -5l3 -4l4 -4l2 -3l1 -1l1 -2q0 -1 0.5 -2t1.5 -2v-2l1 -1q1 -2 1 -3.5t1 -3.5v-2l-1 -1v-3q-1 -1 -1.5 -2t-1.5 -2q-3 -4 -9.5 -4t-10.5 4z" />
    <glyph glyph-name="uniE668" unicode="&#xe668;" 
d="M622 262q-3 0 -5.5 -1t-4.5 -1h-374v-18q0 -4 -3 -7t-7 -3h-35q-5 0 -7.5 3t-2.5 7v127q1 0 2.5 1t1.5 2q3 3 6.5 5t5.5 5q10 6 18.5 12l17.5 12l3 2q3 3 5.5 6.5t3.5 6.5q2 0 3.5 -0.5t3.5 -0.5q3 0 6 1t7 2l26 11.5t27 9.5q5 1 8.5 4t6.5 7q3 -2 6.5 -2.5t6.5 -0.5h6
q14 3 28 5t28 3q4 0 8.5 1.5t8.5 5.5q4 -4 8.5 -5.5t8.5 -1.5q15 -1 29 -3t27 -5h6q3 0 7 0.5t6 2.5q3 -4 6.5 -7t9.5 -4q14 -4 27 -9.5l26 -11.5l6 -2q3 -1 6 -1h4q1 0 3 1q2 -4 5 -8.5t8 -6.5l2 -2l14 -8l12 -10q5 -3 10 -7t10 -7q1 -2 4 -3.5t6 -2.5v-124q0 -4 -3.5 -7
t-6.5 -3h-35q-5 0 -8 3t-3 7v20zM843 726q9 0 15.5 -7t5.5 -16v-202l-24 -29q0 -3 -1.5 -6t-4.5 -5q-2 0 -3.5 -0.5t-3.5 -0.5h-10v-217q0 -6 -4.5 -10t-9.5 -4h-5q-5 0 -9 4t-4 10v217h-9q-2 0 -4.5 0.5t-4.5 2.5t-3 5t-1 5l-24 28v202q0 10 6.5 16.5t15.5 6.5h82zM725 441
q6 -5 7.5 -12t-2.5 -11l-33 -37q-3 -2 -5 -3.5t-6 -1.5q-2 0 -4.5 1t-4.5 2l-2 1v1q-7 5 -13.5 10.5t-13.5 9.5q-5 5 -11 8.5l-11 6.5q-1 1 -2 1.5t-2 0.5q-1 2 -2.5 4.5t-1.5 4.5q-1 2 -0.5 4.5t1.5 4.5t2 3t1 3q3 4 5 8l12 24q1 1 2 3t2 3q1 2 3 3l3 2q1 1 2 1h4q3 0 5 -1
l6 -2l30 -20q15 -10 29 -22zM483 315q4 19 -16 33l-19 14l-3 -7q-2 -6 -10 -10l10 32q11 33 -15 58q-1 0 -1 -14.5t-24 -28.5q0 -6 -3.5 -16t-8.5 -15q4 11 5 15t2 15l-25 -38q-24 -39 29 -73q-19 26 -1 49l18 20q-1 -2 0 -5q1 -4 1 -6q1 -6 4 -12t9 -10q8 -4 14 -8t7 -12
q0 -3 -0.5 -6t-1.5 -6q8 4 17 11.5t12 19.5zM198 397q-4 -3 -8 -6.5t-8 -6.5l-3 -3q-2 -2 -5.5 -3.5t-6.5 -1.5t-5.5 1t-4.5 4q-9 9 -17 18l-17 19q-4 4 -2.5 11t7.5 12q15 12 29.5 22l29.5 20l6 2q3 1 5 1h3q2 0 4 -1q0 -2 0.5 -3.5t1.5 -3.5l2 -4l8 -15l2 -3l13 -26l4 -3
q-1 -3 -3.5 -6t-4.5 -5q-8 -4 -15 -9t-15 -10zM538 455q-4 1 -6.5 3.5t-2.5 4.5q-2 2 -2.5 5t0.5 4q1 4 1.5 8t1.5 8q3 8 5 16.5t5 16.5v4l4 3q2 1 4.5 2t5.5 1q1 0 3 -0.5t3 -0.5q17 -5 33.5 -11t32.5 -15q4 -1 7 -5t3 -7q0 -1 -1.5 -3t-2.5 -4l-2 -3l-14 -25l-8 -15l-2 -4
q-1 -2 -1 -5q-1 0 -2.5 -0.5t-2.5 -0.5q-2 0 -4 0.5t-3 1.5q-14 6 -28 11zM299 531q3 0 5.5 -1t4.5 -3v-7l8 -33l4 -15q1 -3 2 -5t3 -4q-2 -2 -5 -4.5t-5 -3.5l-28 -10q-14 -5 -27 -11q-2 -1 -4 -1.5t-4 -0.5q-1 0 -2.5 0.5t-2.5 0.5q-3 1 -5 3t-2 4q-1 1 -2 2.5t-2 3.5
l-4 6q-1 3 -3 6l-12 24l-1 1q-1 2 -1 4v5q1 3 4 7t7 5q16 9 32.5 15t33.5 11q1 0 2.5 0.5t3.5 0.5zM418 510v-25q0 -3 0.5 -5t1.5 -4q-2 -3 -5 -4t-7 -1q-15 -1 -29 -3t-28 -5h-3q-3 0 -5.5 1t-4.5 2l-3 4q-2 2 -2 4q-1 4 -2 7t-2 7q-2 8 -4 17l-4 18q-1 2 -0.5 4t1.5 4
q2 4 5.5 6.5t8.5 2.5q17 4 34.5 6t33.5 3h2q4 0 8 -1.5t6 -4.5q0 -2 -0.5 -4t-0.5 -3zM515 476q-1 -3 -1 -5v-5l-4 -2q-2 -1 -5 -1h-3q-15 3 -29 5t-29 3q-3 0 -6 1.5t-5 3.5l-2 4q-1 2 -1 5v51q0 1 1 3l2 4q2 3 6 4.5t8 1.5h1q18 -1 35 -3t35 -6q4 -1 7.5 -3t5.5 -6
q-1 -1 -1.5 -3t-1.5 -4l-6 -22l-3 -14zM817 490q3 1 5.5 4t2.5 8q0 4 -3.5 8t-9.5 4h-20q-5 0 -8.5 -4t-3.5 -8t1.5 -6.5t4.5 -4.5q1 -1 2.5 -1.5t3.5 -0.5h22q2 0 3 1zM423 352q-2 -1 -2 -3z" />
    <glyph glyph-name="uniE669" unicode="&#xe669;" 
d="M418 129q-15 11 -11 25q5 27 8.5 54.5t8.5 54.5q7 17 -13 27q-36 18 -63 45.5t-35 69.5q0 5 -0.5 10.5t-2.5 13.5h394q-12 -91 -84 -132q-16 -7 -20 -16.5t-1 -25.5q8 -50 17.5 -102t17.5 -107q-5 0 -10.5 -1.5t-10.5 -1.5q-8 33 -13.5 65l-10.5 63h-140q-5 0 -8 -5.5
t-5 -7.5l-9 -14t-9 -11v-4zM609 684q3 -3 7 -4t11 -3l-171.5 -117.5l-170.5 -115.5q-13 45 -18.5 74t-3.5 51t11.5 41.5t28.5 45.5q-10 37 4.5 62t51.5 35q13 4 25.5 2.5t22.5 -12.5q3 -5 9.5 -6t12.5 -1q50 13 91.5 2.5t78.5 -47.5q2 -2 5.5 -4.5t4.5 -2.5zM613 471
q16 3 16.5 12t-9.5 37q11 -4 17 -9.5t10 -14.5t8 -22t10 -30h-306q1 12 6.5 20t12.5 13.5t15 10.5t14 12v-8q0 -7 -1.5 -13.5t-1.5 -13.5q2 0 5.5 -1t6.5 -2t5 -2q6 8 10.5 16t4.5 12q0 19 7 31t23 15h5l-11.5 -15.5t-10.5 -12.5q22 -16 31 -6.5t15 48.5q1 2 2 2l2 1
q1 0 2 1q3 -11 5 -21.5t2 -17.5q-2 -8 -6.5 -14t-6.5 -13q-3 -6 -6 -11t-5 -10q0 -4 6 -5.5t8 -1.5q15 4 20 13q7 17 0 29q-2 13 1 22t14 12v-28h17q4 8 5 16t-1 16q-3 18 1.5 28t22.5 20v-59q-2 -13 -6 -23.5t-4 -20.5q-2 -6 -1 -12t1 -13q5 1 11.5 2t9.5 5q2 10 4.5 20.5
t2.5 20.5q0 8 -0.5 13.5t-3.5 10.5h10q4 -16 6 -30t5 -29zM746 733q31 -28 26 -57t-47 -48q-10 -5 -23 -8.5t-26 -8.5q-3 -3 -7 -8t-4 -9q0 -6 4 -10.5t7 -7.5q5 -3 11.5 -0.5t8.5 6.5q4 3 1.5 10t-4.5 15q8 3 16.5 -0.5t8.5 -16.5q2 -10 0.5 -20t-17.5 -15q-37 -4 -52 25
q-9 16 -17.5 16t-22.5 -14q-1 -4 -6 -9.5t-7 -13.5q-3 21 3 32.5t24 19.5q19 5 35.5 10l34.5 11q42 16 48.5 45t-27.5 59q-2 3 -4.5 4t-2.5 3q-4 13 -9.5 25.5t-4.5 20.5q6 8 19 13t23 8q29 0 37 -14t-5 -35q-8 5 -14.5 12t-14.5 12q-3 0 -6 -4q-2 -2 -4 -3l5.5 -19t4.5 -19
q0 -3 3 -4t5 -3zM460 273l-11 -43q-5 -21 -10 -45h146q-5 24 -10 45.5t-7 42.5h-108zM418 129q26 -10 35 -24t7 -35q-3 -21 -15.5 -33t-33.5 -12t-35 12t-17 33q-5 16 3.5 33.5t26.5 23.5q9 1 16.5 1.5t12.5 0.5zM649 719q2 8 8.5 16t14.5 8q8 4 17 -1t15 -12
q18 -22 13.5 -45t-31.5 -36q-13 -8 -28 -15.5t-31 -11.5l-29 -8.5t-28.5 -11.5t-24.5 -17.5t-19 -25.5q5 43 45 59q27 10 52.5 22.5t48.5 25.5q8 6 11.5 15.5l7.5 19.5q0 4 -6.5 8t-12.5 7q-2 -6 -5 -9t-5 -9q0 -2 1.5 -5t1.5 -5q-3 -4 -11 -4q-2 10 -5.5 18.5t0.5 16.5z
M609 750q-10 2 -21 3.5t-13 7.5q-6 8 -4 19.5t7 19.5q8 16 27.5 20t35.5 -4q10 -2 16 -8.5t8.5 -14.5t1 -17t-7.5 -15l-20 -25t-8 -17t3.5 -16.5t14.5 -22.5q-30 13 -33.5 31.5t15.5 41.5q10 14 9.5 25.5t-13.5 16.5q-5 4 -12.5 1.5t-15.5 -4.5q0 -2 0.5 -9.5t2.5 -14.5
q0 -3 4 -6l7 -4q-3 0 -3.5 -3t-0.5 -5zM429 77q2 6 -4.5 12.5t-13.5 19.5q-8 -13 -15 -19.5t-7 -12.5q0 -5 8 -12.5t10 -7.5q9 2 15.5 8.5t6.5 11.5zM324 674q18 13 34 23.5t31 21.5q0 2 -1 5t-1 6q-10 0 -17.5 -5t-14.5 -11t-14.5 -11.5t-16.5 -7.5q-3 0 -1.5 -7t1.5 -14z
" />
    <glyph glyph-name="uniE66A" unicode="&#xe66a;" 
 />
    <glyph glyph-name="uniE66B" unicode="&#xe66b;" 
 />
    <glyph glyph-name="uniE66C" unicode="&#xe66c;" 
 />
    <glyph glyph-name="uniE66D" unicode="&#xe66d;" 
 />
    <glyph glyph-name="uniE66E" unicode="&#xe66e;" 
 />
    <glyph glyph-name="uniE66F" unicode="&#xe66f;" 
 />
    <glyph glyph-name="uniE670" unicode="&#xe670;" 
 />
    <glyph glyph-name="uniE671" unicode="&#xe671;" 
d="M895 208h-761q31 50 55.5 95.5t56.5 81.5q14 16 41 20t65 3h331q56 4 91.5 -16.5t56.5 -71.5q12 -26 28.5 -52t35.5 -60zM752 466q14 51 3.5 69.5t-64.5 36.5q-47 16 -94 24t-94.5 8t-94.5 -8t-94 -24q-51 -18 -62.5 -36t2.5 -70h498zM553 663l-17 24.5l-20 27.5
l-21 -24.5t-19 -23.5q-20 47 -13 77.5t49 74.5q46 -34 55.5 -70t-14.5 -86zM183 595q5 -17 8 -29l6 -23l-6 -2q-3 -1 -5 -1q-42 16 -58.5 48t-18.5 73q54 12 81.5 0t55.5 -62l-29.5 -2t-33.5 -2zM895 664q-1 -54 -16.5 -78t-66.5 -48q2 15 4.5 29t5.5 29q-16 1 -29.5 1.5
t-26.5 0.5q16 47 42.5 60.5t86.5 5.5z" />
    <glyph glyph-name="uniE672" unicode="&#xe672;" 
d="M224 675h570v-524h-570v524zM279 195q0 -12 11 -12h447q11 0 11 12v348q0 11 -11 11h-447q-11 0 -11 -11v-348zM773 787q11 0 20 -5t9 -13v-72h-578v72q0 8 7.5 13t18.5 5h25q0 11 11 11h157q10 0 10 -11h117q0 11 10 11h157q11 0 11 -11h25zM529 241q-10 -1 -24 -1.5
t-29 3.5t-28.5 13.5t-23.5 28.5q-10 18 -3.5 47.5t19.5 57.5t26 50.5t16 26.5t4.5 11t2.5 13t1 12q16 -13 20 -34.5t-1 -37.5q-4 -19 -0.5 -33.5t3.5 -29.5q0 -11 5 -9q3 0 6 3q13 7 20 18.5t10 22.5t2 24q22 -11 25.5 -30t3.5 -35q-3 -20 1 -27t10 -13q2 -3 2.5 -6t2.5 -6
q1 -3 3 -6q5 -17 -1 -28t-18 -18t-27 -11t-28 -6zM464 376q-3 -3 -10 -12t-12.5 -21t-7.5 -25.5t6 -24.5q13 -19 32.5 -28.5t50.5 -4.5q13 1 26 4t22 10t13 18.5t0 29.5q-1 0 -2 1q-1 0 -2 0.5t-2 -1.5q0 -9 -3 -15q-2 -7 -7 -13t-13 -9v8q1 3 3 9.5t1 14.5t-5.5 16
t-16.5 13v-3q0 -3 -1 -10t-4 -15.5t-8.5 -15t-14.5 -9.5q-1 -2 -3 -2t-3 1.5t-2 7.5q-5 26 0 58q1 8 0.5 18t-2.5 18t-6.5 14t-10.5 7q-3 -9 -7 -17q-2 -7 -5 -13t-6 -9zM228 129h566l-3 -18h-559zM326 594q-11 0 -11 -7q0 -11 11 -11h371q8 0 8 11q0 7 -8 7h-371zM443 750
h-102v-29h102v29zM683 757q-19 -4 -19 -22q0 -16 19 -16v38zM689 719q6 0 11 6t5 10q0 9 -5 15t-11 7v-38zM545 747q-6 -3 -11 -7t-5 -11q0 -6 5 -8.5t11 -6.5v33zM632 714q5 4 9.5 6.5t4.5 8.5q0 7 -4.5 11t-9.5 7v-33zM629 747q-6 -3 -10.5 -7t-4.5 -11q0 -6 4.5 -8.5
t10.5 -6.5v33zM552 714q5 4 7.5 6.5t2.5 8.5q0 7 -2.5 11t-7.5 7v-33zM584 747q-5 -3 -7.5 -7t-2.5 -11q0 -6 2.5 -8.5t7.5 -6.5v33zM592 714l8 6.5t3 8.5q0 7 -3 11t-8 7v-33z" />
    <glyph glyph-name="uniE673" unicode="&#xe673;" 
 />
    <glyph glyph-name="uniE674" unicode="&#xe674;" 
 />
    <glyph glyph-name="uniE675" unicode="&#xe675;" 
 />
    <glyph glyph-name="uniE676" unicode="&#xe676;" 
 />
    <glyph glyph-name="uniE677" unicode="&#xe677;" 
 />
    <glyph glyph-name="uniE678" unicode="&#xe678;" 
 />
    <glyph glyph-name="uniE679" unicode="&#xe679;" 
 />
    <glyph glyph-name="uniE67A" unicode="&#xe67a;" 
 />
    <glyph glyph-name="uniE67B" unicode="&#xe67b;" 
 />
    <glyph glyph-name="uniE67C" unicode="&#xe67c;" 
 />
    <glyph glyph-name="uniE67D" unicode="&#xe67d;" 
 />
    <glyph glyph-name="uniE67E" unicode="&#xe67e;" 
 />
    <glyph glyph-name="uniE67F" unicode="&#xe67f;" 
 />
    <glyph glyph-name="uniE680" unicode="&#xe680;" 
 />
    <glyph glyph-name="uniE681" unicode="&#xe681;" 
 />
    <glyph glyph-name="uniE682" unicode="&#xe682;" 
d="M691 351l4 4q5 5 13 -4q0 -12 -1 -32.5t-12 -43.5q-12 -26 -32.5 -58.5t-76.5 -69.5q-11 -9 -17 -18.5t-4 -32.5q5 -10 20.5 -21.5t48.5 3.5q17 10 49.5 37.5t64.5 80.5q10 17 25.5 62.5t18.5 112.5v197l3 3q3 4 6 -3q8 -11 10 -31.5t-12 -50.5v-116l14 11q13 10 40 108
q5 17 6 54.5t-18 58.5q-14 14 -28.5 21.5t-34.5 8.5q0 1 -27 1.5t-59.5 0.5t-59.5 -0.5t-27 -1.5l-28 -21q-29 -19 -31 -66q0 -32 11 -62.5t51 -112.5v136l-14 15q-13 15 7 48q3 3 9 8t6 -12v-382l25 23q27 23 50 95v50zM445 422q84 3 102 17l19 12h-421l19 -12
q19 -14 103 -17l34 -44q35 -44 38 -143l2 -121l-5 -2q-5 -1 -32 -1l-21 -1q-19 -1 -19 -13h183q0 12 -20 13l-20 1q-25 0 -31 1l-6 2l2 121q3 99 38 143zM778 737q0 -32 -22 -54t-54 -22q-31 0 -53.5 22t-22.5 54q0 31 22.5 53.5t53.5 22.5q32 0 54 -22.5t22 -53.5zM343 794
l18 -19q17 -18 15 -49q-3 -12 -11.5 -34t-43.5 -34q-9 -2 -21.5 -2t-32.5 7q2 -4 16.5 -19.5t47.5 -17.5q13 -1 40.5 6.5t44.5 48.5l4 29q4 24 -19 54l-20 17t-38 13zM380 501h85q9 0 11.5 -8t-2.5 -14q-5 -2 -11 -5t-12 -4l-2 -1h-57q-1 0 -2 1q-2 1 -7 3t-10 5
q-7 6 -4.5 14.5t11.5 8.5zM475 581l-17 13l-21 20q-2 2 -4.5 3t-3.5 1h-3q-2 -1 -3.5 -1.5t-2.5 -2.5q-8 -7 -9 -17t1 -14v-2q6 -19 20.5 -23t23.5 -4q1 2 2 -1t1 -5l-2 -2v-3q0 -3 1.5 -4t4.5 0t3.5 3.5t-1.5 3.5q-1 1 -1 3t1 4l3 3q1 2 2 3q0 2 0.5 3.5t2.5 3.5q6 5 3 10z
M635 70l-6 -6q-4 -7 11 -12q14 0 27 1t24 24q3 6 3 13v22q-14 -15 -32.5 -26.5t-26.5 -15.5zM365 510l1 6q2 6 10 10q3 1 5 2.5t3 2.5q2 3 5.5 7.5t13.5 6.5q1 1 9 2t19 -5q4 -2 6.5 -4t2.5 -4q2 -3 5 -3h7q6 0 14.5 -3t12.5 -18h-10l-6 8q-5 8 -16 0h-9l-1 6q-1 7 -11 10
l-8 3q-8 3 -16 -3q-3 -2 -6.5 -3.5t-5.5 -6.5q-1 -3 -2.5 -4.5t-4.5 -2.5q-2 0 -4.5 -2t-2.5 -5h-11zM465 571q-3 -2 -5.5 -4t-16.5 -3h-1q-1 0 -2 1q-2 0 -9 3.5t-10 14.5v11q0 8 2 10l3 1q3 2 6 -2q5 -2 18 -14l13 -11l2 -3q2 -2 0 -4zM283 775l6 -11l11 -1l-8 -8l2 -11
l-11 5l-9 -5l2 11l-9 8l11 1zM296 718l2 -7l9 -1l-6 -5l1 -7l-6 4l-7 -4l1 7l-6 5l9 1zM429 600l-2 -5q-2 -6 -1 -10q3 0 6.5 0.5t7.5 4.5q-1 3 -4.5 6t-6.5 4zM442 585l-6 -1q-6 -1 -8 -4q1 -4 6.5 -7t5.5 -2l2 6q1 7 0 8zM447 585l-2 -3q-1 -4 0 -11q3 0 7 0.5t5 5.5
q0 1 -4 4t-6 4zM337 766l3 -4l6 -1l-4 -4l1 -5l-6 3l-4 -3l1 5l-3 4l5 1z" />
    <glyph glyph-name="uniE683" unicode="&#xe683;" 
d="M666 657q4 -6 1.5 -13.5t-8.5 -11.5q-1 0 -44 -29.5t-75 -86.5q-1 -2 -3 -4t-4 -3v-95q16 -14 33 -60t-24 -142q-4 -9 -10.5 -13t-14.5 -4q-3 0 -6 0.5t-5 1.5q-11 4 -15 15t1 21q21 51 21.5 80t-5.5 42h-68q-5 -13 -5 -42t22 -80q4 -10 0 -21t-14 -15q-3 -1 -5.5 -1.5
t-5.5 -0.5q-9 0 -15 4t-10 13q-34 79 -27 123t22 65v114q-32 56 -75 86t-44 30q-7 4 -9 11.5t2 14.5t11 9t14 -2q3 0 45 -29.5t79 -85.5h91q37 57 79.5 86l45.5 31q7 4 14 1.5t11 -9.5zM376 351q-3 -18 -1.5 -41.5t9.5 -52.5h-147v-55q0 -11 -8 -18.5t-19 -7.5h-13
q-11 0 -19.5 7.5t-8.5 18.5v362q0 12 8.5 20t19.5 8h13q11 0 19 -8.5t8 -19.5v-213h139zM855 351v-94h-5v-55q0 -11 -8 -18.5t-19 -7.5h-11q-11 0 -19.5 7.5t-8.5 18.5v55h-219q9 29 10.5 52.5t-2.5 41.5h282zM803 436q6 0 10 -4.5t4 -9.5v-54q0 -5 -4 -9t-10 -4h-230
q-5 24 -14.5 38.5t-17.5 21.5v21h262zM656 784v-2l27 -4l-1 -2l-27 2l-1 -2l27 -6v-2l-28 3v-1l26 -10l-1 -1l-27 7l24 -15l-1 -1l-26 11v-1l23 -15l-1 -2l-24 13l-1 -1l22 -19l-2 -1l-22 15l-2 -1l19 -20v-1l-22 18l-1 -2l18 -21h-1l-20 18v-1h-1l15 -23v-1l-19 21l-1 -1
l12 -25h-2l-13 23h-1l-1 -1l10 -25l-1 -1l-13 24h-1l7 -27l-1 -1l-11 26v-1h-1l6 -27l-2 -1l-9 27l-1 -1l4 -27h-2l-7 26v-27h-1l-5 27h-1l-3 -27h-2v27h-1l-5 -27h-2l2 27h-1l-8 -26h-2l5 27l-1 1l-11 -27l-1 1l7 27l-1 1l-12 -26l-2 1l9 27l-15 -24l-2 1l12 25v1l-19 -22
l-1 1l15 23l-1 1l-20 -19l-1 1l18 21h-1v1l-22 -18l-1 2l19 20l-1 1l-23 -17l-1 2l21 18l-1 1l-23 -15l-2 2l22 18l-26 -12l-1 1l24 15l-1 1l-27 -8l-1 2l26 11v1l-27 -7v2l25 9v1l-28 -3v2l27 7v1l-28 -1v2l28 3v1l-28 2v2l28 2v1l-29 4l1 1l28 -1v1l-27 10l1 1l27 -5v2
l-25 10v1l25 -7l1 1l-25 13l1 1l25 -10l1 1v1l-24 14l1 1l25 -11h1v1l-23 16l1 1l25 -13v1l-21 18v2l24 -15l-17 22l1 1l20 -20h1v1l-16 22l1 1l20 -19h1l-15 25h2l16 -22l2 1l-13 24l1 1l16 -23h1l-10 28h1l13 -25l-5 28l2 1l8 -27h1l-4 28h2l7 -27v28h2l4 -26h2v27h2
l2 -27h1l3 27h2l1 -27h1l5 27h2l-3 -27h1l10 26l2 -1l-7 -27h2l11 25l2 -1l-9 -26h1l14 23l1 -1l-11 -24l1 -1h1l16 23v-1l-12 -25h1l17 23l2 -2l-15 -24h1l19 20l2 -1l-16 -23l23 18l1 -2l-21 -20l1 -1l23 16l2 -2l-22 -17v-1h1l25 13l1 -2l-23 -16v-1l26 10l1 -1l-25 -13
l1 -1l27 7l1 -1l-26 -11v-1h1l28 6v-2l-27 -9l1 -1l28 1v-2l-27 -4v-2l28 -1v-1l-28 -3v-1l28 -4l-1 -2zM523 620q0 -22 -16 -38t-38 -16q-23 0 -39 16t-16 38q0 23 16 39t39 16q22 0 38 -16t16 -39zM505 348q3 -12 2 -34t-13 -57h-39q-12 35 -13 57t3 34h60zM367 379
q0 -10 -7 -17t-16 -7h-72q-9 0 -16 6.5t-7 17.5q0 9 7 16t16 7h72q9 0 16 -6.5t7 -16.5z" />
    <glyph glyph-name="uniE684" unicode="&#xe684;" 
d="M334 458q-4 18 1 34.5t14.5 29.5t21.5 22.5t24 15.5q17 10 29 -8q11 -23 -8 -33q-1 0 -7.5 -5t-13.5 -12t-12 -15.5t-4 -16.5q3 -9 11 -13t17.5 -6t18 -2.5t13.5 -0.5q9 2 15.5 -4.5t6.5 -14.5v-11l8 -15q3 0 1.5 -0.5t-1.5 -3.5h22l-11 109h-30l-7 -57h-27q-1 0 -6 2
q-3 1 -5 2q-5 0 -8 2q-1 1 -2 1q-3 3 -5.5 4t-2.5 5v18q2 6 7 11.5l10 10.5l12 7q9 6 13.5 16t-1.5 22q-3 3 -5.5 6t-6.5 5h116q6 0 11 -4.5t8 -10.5q6 -11 21 -29.5t35 -29.5v59h168v-116h-168v8q-35 12 -56 33v-74h253q19 0 19 -18v-37q0 -19 -19 -19h-14l7 -239h-40
l-12 239h-425l-12 -239h-40l7 239h-15q-19 0 -19 19v37q0 18 19 18h127v6h6q3 0 4 -2q9 -3 17 -3.5t14 -0.5h40l-1 1q-1 1 -1 3l-9 11q-5 -11 -14 -11h-15q-13 0 -27.5 2.5t-27.5 8.5t-23.5 16.5t-15.5 27.5zM589 317q4 -17 6 -39.5t-0.5 -50t-11 -58.5t-24.5 -64
q-6 -9 -15.5 -14t-19.5 -5q-5 0 -9 0.5t-9 3.5q-14 5 -18.5 19.5t3.5 28.5q14 26 20.5 50.5t8.5 45.5t0 37l-2 28h-94q-6 -26 -4 -66.5t30 -94.5q8 -14 4 -28.5t-19 -19.5q-5 -3 -9 -3.5t-10 -0.5q-8 0 -17.5 5t-15.5 14q-17 33 -25 64t-11 58.5t-0.5 50t6.5 39.5h236z
M361 712q0 -20 -7.5 -37t-19.5 -29t-29 -20t-37 -8t-37.5 8t-31 20t-21 29t-7.5 37q0 19 7.5 36.5t21 31t31 21.5t37.5 8t37 -8t29 -21.5t19.5 -31t7.5 -36.5zM182 712q0 -17 6.5 -32.5t18 -27t27.5 -19t34 -7.5q16 0 31 7.5t26.5 19t18 27t6.5 32.5q0 18 -6.5 34t-18 27
t-26.5 18t-31 7q-37 0 -61.5 -24.5t-24.5 -61.5zM466 585q-32 0 -53.5 22t-21.5 53q0 30 21.5 50.5t53.5 20.5q30 0 50.5 -20.5t20.5 -50.5q0 -31 -20.5 -53t-50.5 -22zM339 712q0 -14 -6.5 -27t-16 -22.5t-22.5 -15.5t-26 -6q-16 0 -29.5 6t-23.5 15.5t-16 22.5t-6 27
q0 31 22 52.5t53 21.5q13 0 26 -5.5t22.5 -15.5t16 -24t6.5 -29zM480 108q4 -9 6.5 -14t8.5 -8l4 -4h-56l4 4q5 3 8 8t6 14q4 9 4 15t-4 15v116h-29v37h78v-37h-30v-120q-5 -10 0 -22v-4zM607 425h168v-19h-168v19zM480 537q0 3 -2.5 7t-8.5 4h-12q-2 0 -4.5 -4t-2.5 -7v-15
q0 -2 2.5 -6.5t4.5 -4.5h12q6 0 8.5 4.5t2.5 6.5v15zM200 739l71 -38l-15 56h-7l7 -37l-52 25zM693 514q-19 0 -19 -11t19 -11q5 0 9.5 3t4.5 8q0 6 -4.5 8.5t-9.5 2.5zM704 414h63v7h-63v-7zM234 716h-30v-8h30v8zM264 742h7v34h-7v-34zM298 708h29v8h-29v-8zM264 649h7v33
h-7v-33zM615 414h7v7h-7v-7zM629 414h7v7h-7v-7zM641 414h7v7h-7v-7z" />
    <glyph glyph-name="uniE685" unicode="&#xe685;" 
 />
    <glyph glyph-name="uniE686" unicode="&#xe686;" 
 />
    <glyph glyph-name="uniE687" unicode="&#xe687;" 
 />
    <glyph glyph-name="uniE688" unicode="&#xe688;" 
 />
    <glyph glyph-name="uniE689" unicode="&#xe689;" 
 />
    <glyph glyph-name="uniE68A" unicode="&#xe68a;" 
 />
    <glyph glyph-name="uniE68B" unicode="&#xe68b;" 
 />
    <glyph glyph-name="uniE68C" unicode="&#xe68c;" 
 />
    <glyph glyph-name="uniE68D" unicode="&#xe68d;" 
 />
    <glyph glyph-name="uniE68E" unicode="&#xe68e;" 
 />
    <glyph glyph-name="uniE68F" unicode="&#xe68f;" 
 />
    <glyph glyph-name="uniE690" unicode="&#xe690;" 
 />
    <glyph glyph-name="uniE691" unicode="&#xe691;" 
 />
    <glyph glyph-name="uniE692" unicode="&#xe692;" 
 />
    <glyph glyph-name="uniE693" unicode="&#xe693;" 
 />
    <glyph glyph-name="uniE694" unicode="&#xe694;" 
 />
    <glyph glyph-name="uniE695" unicode="&#xe695;" 
 />
    <glyph glyph-name="uniE696" unicode="&#xe696;" 
 />
    <glyph glyph-name="uniE697" unicode="&#xe697;" 
 />
    <glyph glyph-name="uniE698" unicode="&#xe698;" 
 />
    <glyph glyph-name="uniE699" unicode="&#xe699;" 
 />
    <glyph glyph-name="uniE69A" unicode="&#xe69a;" 
 />
    <glyph glyph-name="uniE69B" unicode="&#xe69b;" 
 />
    <glyph glyph-name="uniE69C" unicode="&#xe69c;" 
 />
    <glyph glyph-name="uniE69D" unicode="&#xe69d;" 
 />
    <glyph glyph-name="uniE69E" unicode="&#xe69e;" 
d="M556 257q-23 -23 -31 -57.5t-3 -85.5q0 -13 -8 -23.5t-23 -13.5h-3q-11 0 -20.5 9.5t-9.5 20.5q-8 68 5 115.5t47 78.5q26 26 56 36t53 13q9 23 8 43.5t-5 34.5q-18 -7 -41 -10t-41 -3h-25l-5 3q-10 -3 -27 -2q-9 0 -18 2v-12h98q-5 -7 -19 -12q-13 -4 -35 -8t-61 -6
q-20 -3 -35 -17q-13 -13 -24 -38.5t-13 -73.5l-3 -117q2 -10 6 -18q5 -7 11.5 -12t18.5 -5q10 0 19 -1q7 -2 13.5 -5t6.5 -10h-177q0 7 5.5 10t12.5 5q8 1 19 1q12 0 19.5 5t12.5 12q4 8 5 18v117q-2 48 -13 73.5t-23 38.5q-15 14 -34 17q-42 2 -64.5 6t-34.5 8
q-13 5 -17 12h262v12q-18 -2 -29 2t-17 10q-7 6 -10 14h19q0 14 14 14q16 0 16 -14h19q8 9 15.5 15.5t9.5 10.5q6 3 9 3.5t6 0.5t4.5 0.5t7.5 3.5q0 2 3.5 5t8.5 10q-7 4 -7 14t7 14q4 10 14 12t14 -4h4q4 4 9.5 5.5t5.5 -0.5q3 -4 3 -8.5t-3 -6.5q20 -10 37.5 -10.5
t30.5 4.5q16 4 29 13q9 8 18.5 6.5t16.5 -11.5q5 -4 4.5 -14.5t-9.5 -18.5q-11 -8 -34.5 -17t-51.5 -9q-19 0 -39 5.5t-43 16.5q-5 -2 -9 -6t-6 -4q-2 -7 -3 -8.5t-3 -3.5q0 -2 -1 -4l-2 -3q0 -1 -2 -3q-3 -4 -3.5 -6t-1.5 -2h19q5 11 12 18t19 3h16q9 -5 21 -6t26 -1h30
q22 6 34 12q3 2 4 3t3 1q3 3 4 3.5t5 0.5q0 2 1 2t2 1l3 3h5q0 2 1 4h2q3 4 5 8t2 7q0 6 -2 12t-5 11q-4 11 -23 11q-3 0 -7.5 -2t-7.5 -6q-5 -1 -10 -4l-10.5 -5t-13.5 -5q4 8 9 15.5t14 14.5q20 11 40 6t32 -25q1 -2 8.5 -18t13 -42.5t6.5 -63t-10 -77.5
q-2 -21 -17.5 -31.5t-31.5 -10.5h-11q-19 2 -37 1q-15 -2 -33.5 -7.5t-33.5 -19.5zM829 499q14 4 20.5 1.5t8.5 -6.5q3 -5 1 -13l-51 -389h-261q-1 6 -1.5 15t0.5 19q0 11 1 22q7 39 19.5 59.5t33 31.5t49 14.5t69.5 6.5q25 2 39 12t19.5 24.5t4.5 32t-5 34.5t-8.5 31.5
t-6.5 23.5q-3 13 2.5 26t16 24.5t23.5 19.5t26 11zM271 627q-2 0 -16 11.5t-26.5 32t-17 49.5t10.5 68q3 5 10.5 16.5t21 23t32.5 20.5t46 11q-18 -13 -30 -32q-9 -16 -15 -39t2 -52q4 -7 12 -24.5t24 -33.5t42 -26t66 -3q-20 -22 -45 -32q-21 -10 -50.5 -11t-66.5 21z
M601 560q-26 0 -44.5 19t-18.5 48q0 28 18.5 48t44.5 20q28 0 47.5 -20t19.5 -48q0 -29 -19.5 -48t-47.5 -19zM237 757h-8q-3 0 -7 -3h15v-14q3 2 3.5 5.5t0.5 8.5h15q-2 2 -4 2t-5 1h-6q0 7 -2 12q-1 3 -2 4v-16zM450 444q6 1 9 7q2 3 3 5q3 0 3 2h-3q0 -2 -7 -5
q-4 -2 -6 -4q-1 -2 -3 -2l-2 -3h6zM254 727q-5 0 -6 -1.5t-2 -1.5h8v-7q1 -1 2 -1v8h8q0 3 -4 3h-4v9l-2 -4v-5zM462 444q2 1 2 2l2 1h3q0 2 -2 4q-1 1 -2 1t-2 -1t-5 -7h4zM241 701h-14q0 -2 3 -2h4z" />
    <glyph glyph-name="uniE69F" unicode="&#xe69f;" 
 />
    <glyph glyph-name="uniE6A0" unicode="&#xe6a0;" 
 />
    <glyph glyph-name="uniE6A1" unicode="&#xe6a1;" 
 />
    <glyph glyph-name="uniE6A2" unicode="&#xe6a2;" 
 />
    <glyph glyph-name="uniE6A3" unicode="&#xe6a3;" 
 />
    <glyph glyph-name="uniE6A4" unicode="&#xe6a4;" 
 />
    <glyph glyph-name="uniE6A5" unicode="&#xe6a5;" 
 />
    <glyph glyph-name="uniE6A6" unicode="&#xe6a6;" 
 />
    <glyph glyph-name="uniE6A7" unicode="&#xe6a7;" 
 />
    <glyph glyph-name="uniE6A8" unicode="&#xe6a8;" 
 />
    <glyph glyph-name="uniE6A9" unicode="&#xe6a9;" 
 />
    <glyph glyph-name="uniE6AA" unicode="&#xe6aa;" 
 />
    <glyph glyph-name="uniE6AB" unicode="&#xe6ab;" 
 />
    <glyph glyph-name="uniE6AC" unicode="&#xe6ac;" 
 />
    <glyph glyph-name="uniE6AD" unicode="&#xe6ad;" 
d="M535 388q-81 61 -115.5 128.5t-32.5 137t34.5 138.5t86.5 130q-12 -54 -18 -92t-3.5 -68.5t13 -59.5t31.5 -66l49 -74.5t49 -75.5l29.5 -52.5l29.5 -52.5q0 -4 -2.5 -5t-5.5 -4l-11.5 18.5t-12.5 17.5q-4 0 -7 -4q12 -21 21.5 -42l21.5 -48l-45.5 61.5t-48.5 56.5
l-32.5 37t-29.5 38.5t-20.5 44.5t-7.5 53h-9q-5 -15 -12 -30l-15 -33q-24 38 -29 79t2 85q-22 -49 -22 -91.5t15 -81t41 -74t56 -71.5zM618 223q2 -6 5 -9.5t6 -9.5q-3 -6 -6.5 -11.5t-9.5 -20.5q-8 60 -34.5 96.5t-70.5 60.5q37 -39 63 -81t22 -99q0 -25 -9 -53t-24 -51.5
t-34.5 -39.5t-37.5 -17q44 32 66.5 73t19.5 91q0 103 -86 166q0 -9 2 -13t2 -7v-16q-27 29 -60.5 52.5t-63.5 49.5t-49 60t-16 85q-6 -8 -7.5 -17t-4.5 -17q-5 -27 0 -49t16 -42t27 -37.5t35 -33.5q24 -17 47 -37l48 -41q-3 -3 -5.5 -4t-2.5 -5l-74.5 62l-70.5 61
q-55 48 -55 113q1 32 9.5 59t21.5 53t29.5 49.5l33.5 47.5q-11 -34 -11.5 -65t7 -59t23 -54.5t36.5 -49.5q35 -38 74.5 -72t75.5 -73q17 -21 32.5 -45.5zM641 141l4 -4q1 -1 4 -1q-9 -14 -16 -28.5t-15 -25.5q3 -4 7 -4q3 3 7.5 4t8.5 4q1 0 3 -2q0 -1 1 -2q-12 -12 -26 -21
l-30 -19q0 5 -7 13l29.5 41.5t29.5 44.5zM629 204q5 20 11.5 42l11.5 40q12 -32 8 -50t-31 -32z" />
    <glyph glyph-name="uniE6AE" unicode="&#xe6ae;" 
 />
    <glyph glyph-name="uniE6AF" unicode="&#xe6af;" 
 />
    <glyph glyph-name="uniE6B0" unicode="&#xe6b0;" 
 />
    <glyph glyph-name="uniE6B1" unicode="&#xe6b1;" 
 />
    <glyph glyph-name="uniE6B2" unicode="&#xe6b2;" 
d="M380 873q23 -65 63.5 -112.5t88 -89l96 -83t85.5 -91.5q2 3 4 8l6 11q43 -36 56.5 -80t-10.5 -96q-17 -39 -40 -75.5t-49 -69.5q-35 -46 -72.5 -89l-73.5 -85q19 46 41.5 92t34.5 95q14 49 12 94.5t-14.5 89.5t-33.5 85.5t-45 82.5q-33 55 -68.5 108.5t-67.5 108.5
q-11 20 -17 43t-13 45q5 2 9 4zM293 449l51 -66l49 -64q28 40 24.5 72.5t-34.5 66.5q-32 34 -56 71t-24 87q0 5 1 8.5t0 -0.5l96 -114l98 -116v48q54 -18 79 -89t6 -126q-15 -42 -33.5 -82t-35.5 -81q-7 -15 -11 -30.5t-1 -27.5l-59 104l-58 105l41.5 -16.5t54.5 -20.5
q-20 37 -48.5 67.5l-55.5 61.5t-50.5 64.5t-33.5 77.5z" />
    <glyph glyph-name="uniE6B3" unicode="&#xe6b3;" 
d="M590 465q7 -11 13 -22.5t13 -19.5q4 -3 16 -0.5t14 7.5q5 11 8.5 25t-1.5 24q-9 21 -23 41.5t-28 38.5q-28 37 -40 76.5t11 84.5q26 51 69.5 76t99.5 35q-77 -82 -70 -154.5t62 -144.5q8 -12 17.5 -24.5l19.5 -24.5q33 -40 45.5 -84.5t-14.5 -100.5q33 21 40.5 48.5
t11.5 55.5l5 -4q16 -35 16.5 -71t-11.5 -73q-5 -14 -9 -28t-4 -30q2 -19 -5.5 -30t-20.5 -19q-38 -27 -80.5 -35t-85.5 -10q-14 -1 -28.5 -0.5t-31.5 0.5q51 47 55.5 92t-56.5 94q16 -1 28 -3l24 -2q-1 5 -1 7.5t-2 3.5q-15 20 -31 37.5l-31 35.5q-22 27 -21 51.5t26 46.5z
M320 144q-19 39 -5.5 79.5t15.5 80.5q-2 1 -5 1.5t-5 1.5q-3 -5 -4.5 -10.5t-4.5 -9.5l-1 1q-6 -17 -12.5 -32.5t-13.5 -30.5q-4 9 -9 18.5t-9 20.5q-8 -14 -8.5 -31.5t2.5 -32.5l-7 16l-9 18q-25 -50 7 -116.5t81 -63.5q-18 21 -26 40.5t-9 40.5q6 -6 12 -9t11 -6
q4 -21 17.5 -42.5t34.5 -43.5q-41 5 -78.5 16.5t-54.5 50.5q-12 26 -15 57.5t-4 61.5q0 24 6 47.5l12 47.5l6 7l19 -33l17 -33q14 25 16.5 54t-12.5 55q-17 27 -36 53t-44 48q-41 37 -51.5 92t14.5 105q9 20 19.5 38.5t17.5 37.5q9 21 13.5 42t11.5 43q15 -11 18.5 -30.5
t-1.5 -40.5q-4 -17 -11 -34.5l-14 -34.5q-8 -22 -7 -44t18 -39q11 -8 29 -13.5t31 -2.5q18 3 26.5 20t3.5 37q0 4 -1 7.5t-1 9.5q73 -13 111.5 -79.5t14.5 -140.5q-13 -41 -34 -78.5t-40 -75.5q-8 -19 -18.5 -38t-17.5 -39q-7 -18 -11.5 -34t-4.5 -30zM758 239
q32 59 23.5 123.5t-55.5 97.5q-12 -62 -25 -122.5t9 -123.5q-3 0 -6 -0.5t-6 -0.5q-6 2 -10 4.5l-7 4.5q-4 -23 -9 -48.5t-8 -50.5q63 -3 108.5 41t48.5 114q-16 -12 -30 -24l-27 -24q-2 2 -3.5 4.5t-2.5 4.5zM369 150q5 21 8.5 43t13.5 41q8 22 21.5 42l27.5 40
q17 28 29 59t7 68q59 -47 72 -119.5t-46 -125.5q-19 -19 -36 -41t-38 -46v125q-29 -14 -35 -38.5t-11 -49.5q-3 0 -6 1t-7 1zM488 36q-4 12 -7 23.5t-8 22.5q77 23 147 12.5t135 -54.5q-66 33 -133 36.5t-134 -40.5zM275 481q9 17 3.5 33t-17.5 23q-29 15 -48 38.5t-21 63.5
q-14 -41 12.5 -90t70.5 -68zM357 613q-11 -33 11.5 -73t56.5 -56q8 14 4 27t-14 19q-24 13 -40 32t-18 51z" />
    <glyph glyph-name="uniE6B4" unicode="&#xe6b4;" 
d="M906 350q1 -18 0.5 -57.5t-17 -84t-54 -84t-110.5 -59.5h-50q-50 0 -114 18l-56 35q-58 35 -73 136l136 17l12 -48q12 -50 60 -50q50 -2 65.5 40.5t15.5 57.5q2 15 -3 79t-72 66l-27 -7q-27 -6 -57 -47l-26 2q1 2 2 3t3 2l27 27l-28 -1q34 10 55.5 29t24.5 31l6 20
l-20 -1q-4 0 -8 -0.5t-7 -0.5q-37 0 -66.5 17.5t-48.5 38.5h4l-4 4l23 147l360 91v-135l-266 -48l-13 -108l53 32q55 33 134 11q80 -23 108 -80t31 -93zM420 342q-17 9 -30.5 14.5t-25.5 -6.5q-3 -3 -3.5 -15.5t26.5 -23.5q4 -3 4.5 -7t-22.5 -4q-20 1 -32 4.5t-25 19.5
q-21 -16 -47 -25.5t-55 -9.5q-67 0 -116 49t-49 120q0 69 49 118t116 49q40 0 73 -16.5t55 -43.5q12 6 38 8t61 -27q-17 1 -27 -5.5t2 -24.5q6 -3 21 -0.5t26 10.5q23 -26 61.5 -49.5t85.5 -16.5q-3 -11 -49.5 -43.5t-119.5 -1.5q6 -10 19.5 -24t74.5 -10q-13 -14 -39.5 -36
t-71.5 -3zM302 449v11h15q0 41 -29.5 71.5t-70.5 32.5v-14h-11v14q-42 -2 -71.5 -32.5t-29.5 -71.5h11v-11h-11q3 -40 32 -68t69 -30v12h11v-12q40 2 68.5 30.5t31.5 67.5h-15zM334 591q-20 21 -47.5 33t-57.5 13l20 56q-8 11 -8 32t22 26q23 8 32 -5l11 -13l11 7
q12 8 30 -7l8 -8q7 -10 3 -22h1q32 2 33 -19l1 -21q-7 -27 -23 -28t-18 -1zM205 530h13v-54h-13v54zM189 448l14 -13l-25 -26q-3 -3 -9.5 3t-3.5 9zM225 458q0 -6 -4 -10t-10 -4q-5 0 -9 4t-4 10q0 5 4 9.5t9 4.5q6 0 10 -4.5t4 -9.5z" />
    <glyph glyph-name="uniE6B5" unicode="&#xe6b5;" 
d="M957 416q-4 -14 -60.5 -53.5t-146.5 -2.5q4 -12 21.5 -29t91.5 -14l-49.5 -42.5t-86.5 -4.5q-20 12 -38 18t-32 -7q-3 -3 -3.5 -19t32.5 -29q5 -4 5 -9t-28 -5q-23 2 -38 5.5t-31 23.5q-27 -20 -58 -31.5t-66 -11.5q-56 0 -103 28t-74 74v212q27 45 74 73.5t103 28.5
q47 0 88 -21t69 -55q15 8 46.5 10.5t75.5 -32.5q-22 0 -33.5 -8.5t1.5 -28.5q9 -4 27.5 -1.5t32.5 12.5q27 -33 74 -61t106 -20zM330 403h8q4 -48 39 -82q37 -37 87 -39v-6h13v6q50 3 86 39q35 34 38 82h4v13h-4q-1 52 -38 89q-36 35 -86 39v6h-13v-6q-50 -3 -87 -39
q-38 -37 -39 -89h-8v-13zM177 206v320l-77 -59l-30 73l110 82h102v-416h-105zM472 714q-13 16 -16 43.5t27 41.5t45 -3l16 -16l15 11q16 11 42 -6l11 -11q13 -12 10 -28h1q44 6 48 -23l5 -29q-6 -37 -28 -41t-24 -4l-19 -61q-31 25 -70.5 37.5t-81.5 9.5zM462 504h17v-67
h-17v67zM429 353q-3 -3 -11.5 4.5t-3.5 11.5l29 31l16 -16zM487 414q0 -8 -5 -12.5t-12 -4.5t-11.5 4.5t-4.5 12.5q0 6 4.5 11t11.5 5t12 -5t5 -11zM582 403h19v13h-19v-13zM464 527h13v17h-13v-17zM464 282h13v15h-13v-15zM353 403v13h-15v-13h15z" />
    <glyph glyph-name="uniE6B6" unicode="&#xe6b6;" 
d="M526 335l75 231l226 43l-18 -52q-17 -52 -18 -52t-30.5 -3t-64 -7t-63.5 -8l-29 -4l-10 -38l26 1q27 2 64 -4.5t75.5 -25t63.5 -60.5q49 -82 10 -141l-40 -60l-51 -38q-50 -37 -126 -25q-76 13 -83 41l-6 29l15 28q15 27 83 -12l34 -21q35 -20 65 -14l25 17q25 15 22 56
l-15 50q-14 49 -99 68l-34 5q-35 6 -67 1zM699 696q19 -23 50.5 -42t71.5 -14q-1 -3 -6.5 -9t-14.5 -14l-101 -20q-4 2 -8.5 3.5t-9.5 3.5q1 -2 2 -4.5t3 -5.5l-94 -17l-17 -49q-16 -14 -37 -21.5t-44 -7.5q-3 0 -6 0.5t-6 0.5q-7 14 -26.5 36.5t-64.5 22.5h-10
q-12 17 -18.5 37t-6.5 42q0 58 40 99t98 41q31 0 58.5 -13.5t46.5 -37.5q9 6 31 7.5t50 -22.5q-15 1 -22 -4.5t2 -19.5q4 -3 17.5 -1t21.5 9zM255 412l18 53q30 60 71 70l43 13q48 1 64.5 -24.5t20.5 -34.5q6 -11 7 -46t-32 -90q-32 -55 -79 -107l-47 -51h98q28 -3 41 22
l12 25l20 1l-13 -73q-11 -72 -10 -72t-37 0.5t-84 1.5t-84 1l-39 1q111 141 132 198l22 57l5 49q5 51 -35 59q-40 10 -61 -23l-21 -33zM400 631h5q2 -32 26 -55q24 -24 58 -25v-5h9v5q33 1 57 26q23 23 26 54h3v10h-3q-1 35 -26 60q-24 23 -57 25v5h-9v-5q-34 -2 -58 -26
q-25 -24 -26 -59h-5v-10zM332 759q-13 -1 -28.5 8t-12.5 29q5 22 19 23l15 2l-1 13q0 13 19 20l11 2q11 2 18 -5q14 26 30 17l18 -8q17 -17 11 -30.5t-7 -14.5l25 -33q-25 -7 -46.5 -23t-35.5 -39zM488 699h11v-44h-11v44zM466 598q-2 -2 -8 3t-3 8l19 21l12 -10zM504 639
q0 -5 -3 -8t-7 -3q-5 0 -8.5 3t-3.5 8t3.5 8.5t8.5 3.5q4 0 7 -3.5t3 -8.5zM569 631h12v10h-12v-10zM489 551h9v9h-9v-9zM489 716h9v10h-9v-10zM415 631v10h-10v-10h10z" />
    <glyph glyph-name="uniE6B7" unicode="&#xe6b7;" 
d="M451 482l7 -42q6 -39 8 -41q4 -1 -49 -14l-51 -10l-16 88l-219 -45l-20 113l170 315l106 11l46 -276l50 10l14 -103zM457 311q63 0 109 -45q5 -6 11 -12l17 7q27 14 73 -24q-17 1 -26 -4t2 -23q5 -2 19.5 0t24.5 10q20 -25 55 -46.5t80 -14.5q-3 -11 -45 -41t-110 0
q3 -9 16.5 -22.5t68.5 -9.5l-37.5 -33t-63.5 -2l-30 12t-24 -5q-2 -3 -2.5 -15t24.5 -22q3 -2 4 -5.5t-21 -3.5q-19 0 -32 5q-9 3 -22 15q-38 -30 -91 -30q-64 0 -108.5 45t-44.5 109q0 65 44.5 110t108.5 45zM798 606l3 -32q2 -31 -8.5 -70.5t-45 -76t-108.5 -49.5l-3 4
q0 3 -3 5q-3 3 -8.5 7.5t-12.5 6.5q-5 9 -11 16.5t-7 8.5q-8 7 -16.5 9.5t-16.5 2.5q-2 0 -5.5 -0.5t-7.5 -1.5q-4 5 -12 9.5t-20 4.5q-5 0 -8.5 -0.5t-8.5 -2.5q-9 -2 -15 -6.5t-9 -9.5q-2 8 -3 18.5t-3 19.5l43 8l-7 62l33 3l7 -34q9 -34 48 -32h21q22 0 43 39l7 52
q8 50 -43 62l-27 1q-28 2 -53 -31l-100 24l66 237l289 -11l-5 -102l-205 14l-16 -70l36 14q38 13 94 -3q60 -19 77 -58zM352 148h8q3 -36 28 -61q26 -26 64 -29v-5h9v5q39 3 65 29t29 61h3v11h-3q-1 38 -29 66q-26 28 -65 29v5h-9v-5q-38 -1 -64 -29q-28 -28 -28 -66h-8v-11
zM486 373q-6 10 -6 29t21 25q20 8 30 -4l9 -13l10 7q11 7 28 -7l7 -9q7 -8 4 -19h1q29 1 29 -18l1 -20q-5 -24 -20 -25t-17 -1l-16 -38q-20 17 -44.5 28.5t-52.5 12.5zM341 557l-30 167l-101 -190zM451 224h12v-50h-12v50zM427 112q-3 -2 -8.5 3t-3.5 8l21 23l13 -10z
M470 156q0 -5 -4.5 -8t-8.5 -3q-5 0 -8 3t-3 8q0 6 3 10t8 4q4 0 8.5 -4t4.5 -10zM541 148h14v11h-14v-11zM452 242h9v12h-9v-12zM452 58h9v11h-9v-11zM369 148v11h-9v-11h9z" />
    <glyph glyph-name="uniE6B8" unicode="&#xe6b8;" 
d="M973 466q-3 -7 -18 -23t-40 -28.5t-59.5 -15t-74.5 16.5q1 -7 5 -14.5t15 -13.5t31 -10t52 -2l-18 -20t-26 -20.5t-35 -11.5t-46 8q-18 9 -35.5 15t-29.5 -7q-2 -1 -3 -5.5t0.5 -12t7.5 -14.5t21 -13q3 -3 5 -5.5t1 -4t-7 -2.5t-18 -1q-23 2 -36 5.5t-29 22.5
q-50 -38 -116 -38q-48 0 -86.5 19t-63.5 52q2 11 4.5 22t2.5 25q0 35 -8 64.5t-28 48.5q0 3 -2 3.5t-4 3.5q8 31 24.5 58t40.5 46.5t54.5 30t65.5 10.5q45 0 82.5 -17.5t62.5 -50.5q7 4 17.5 7t25.5 1.5t32 -8t38 -23.5q-19 0 -29 -6t4 -26q4 -5 22 -2.5t31 12.5
q12 -16 30 -31t39.5 -26.5t46 -17t51.5 -1.5zM232 532q35 0 60 -9.5t43 -25.5q15 -21 23.5 -46.5t8.5 -60.5q0 -29 -15 -50q-5 -11 -12.5 -21.5t-17.5 -18.5q-19 -16 -46 -21q-15 -6 -26.5 -9t-23.5 -3q-49 0 -79 18q-15 7 -26.5 18t-18.5 22q-17 28 -23 62q-2 16 -4.5 32
t-2.5 34t3 37t8 39q3 18 11 34.5t18 30.5q11 17 22.5 28.5t29.5 22.5q18 8 38.5 13t43.5 5h18q10 0 15.5 -2t13.5 -2q7 0 12.5 -2t12.5 -2q6 0 12.5 -1.5t10.5 -1.5l-26 -77l-16.5 6.5t-15.5 9.5q-8 0 -16 1.5t-17 1.5q-26 0 -48 -10q-6 -7 -13 -12.5t-12 -13.5t-8 -16.5
t-5 -16.5q0 -8 -1.5 -16.5t-1.5 -16.5q4 8 7.5 12l8.5 10q5 3 11.5 5.5t10.5 5.5q5 3 11.5 3.5t10.5 0.5q4 2 7 2.5t4 0.5zM625 453v13h18q-2 23 -11.5 44.5t-25 38t-36.5 26.5t-43 12v-18h-15v18q-24 -2 -44 -12t-36 -26.5t-26 -38t-11 -44.5h16v-13h-16q3 -23 13 -42
t25.5 -34.5t35 -24.5t43.5 -9v11h15v-11q22 0 42.5 9t35.5 24.5t24 34.5t10 42h-14zM370 680q-7 0 -14.5 4t-12 11t-6 17t3.5 21q5 8 12.5 12t14.5 4q8 0 18 -3q0 7 3 13q3 4 8 9t17 8q6 0 11 -3q12 -4 20 -12q9 10 18 10.5t16 -3.5q8 -5 14 -14q8 -12 8 -19.5t-4 -14
t-8.5 -10t-5.5 -4.5l18 -38q-27 0 -55.5 -11t-50.5 -30zM274 390v36q-3 2 -4.5 7.5t-5.5 9.5q-5 9 -14 13q-5 2 -11 2.5t-13 0.5q-28 0 -42 -10q-5 -5 -9.5 -12t-7.5 -15q0 -13 0.5 -24t2.5 -22l6.5 -14.5t7.5 -11.5q3 -2 8.5 -4.5t9.5 -5.5q6 0 11.5 -1t12.5 -1q5 0 8.5 1
t8.5 1q2 3 6.5 4t7.5 6q5 5 13 15q3 5 3.5 11.5t0.5 13.5zM493 453l16 -15l-26 -29q-3 -3 -6.5 -2.5t-6.5 3.5t-5 6.5t0 5.5zM527 485h-15v61h15v-61zM520 478q5 0 9 -5t4 -10q0 -6 -4 -10t-9 -4q-6 0 -10.5 4t-4.5 10q0 5 4.5 10t10.5 5z" />
    <glyph glyph-name="uniE6B9" unicode="&#xe6b9;" 
 />
    <glyph glyph-name="uniE6BA" unicode="&#xe6ba;" 
 />
    <glyph glyph-name="uniE6BB" unicode="&#xe6bb;" 
 />
    <glyph glyph-name="uniE6BC" unicode="&#xe6bc;" 
 />
    <glyph glyph-name="uniE6BD" unicode="&#xe6bd;" 
 />
    <glyph glyph-name="uniE6BE" unicode="&#xe6be;" 
 />
    <glyph glyph-name="uniE6BF" unicode="&#xe6bf;" 
 />
    <glyph glyph-name="uniE6C0" unicode="&#xe6c0;" 
 />
    <glyph glyph-name="uniE6C1" unicode="&#xe6c1;" 
 />
    <glyph glyph-name="uniE6C2" unicode="&#xe6c2;" 
 />
    <glyph glyph-name="uniE6C3" unicode="&#xe6c3;" 
 />
    <glyph glyph-name="uniE6C4" unicode="&#xe6c4;" 
 />
    <glyph glyph-name="uniE6C5" unicode="&#xe6c5;" 
d="M837 607q6 0 6 -4q0 -5 -4 -11t-11 -11q4 1 6 0q8 -3 5 -8q0 -4 -3.5 -11.5t-13.5 -14.5q2 -1 5 -1q1 -1 2 -1l2 -1v-8q0 -2 -1 -5l-2 -4q-3 -7 -9.5 -8.5t-14.5 -5.5q5 -2 8 -5q2 -3 3.5 -6t-1.5 -5q-1 -1 -2.5 -1.5t-3.5 -1.5l-4 -1q1 -4 4 -9q3 -6 1 -11q-5 -2 -8 -2
h-4q0 -4 1 -8q0 -3 1 -5.5t-2 -4.5q-1 0 -4 -1t-5 -1l3 -14q0 -2 -3 -3q-4 -3 -14 -3v-14h-17v-16h-19v-14h-20v-11h-17l-3 -6q-2 -2 -5 -2t-5.5 -0.5t-6.5 2.5q-4 -21 -12 -38t-22 -32q-12 -15 -30 -32t-46 -39l-39 -30q-43 -25 -58 -39q-3 -4 -10 -11.5t-13 -17.5h234v-91
h-366q2 28 8 54t18 49q10 29 37 56.5t67 57.5q1 3 4 3.5t5 3.5q23 -11 47 -11q30 0 57.5 12.5t49.5 33.5t34 48.5t12 58.5q0 32 -12 59.5t-34 47.5t-49.5 32t-57.5 12q-32 0 -59.5 -12t-48 -32t-31.5 -47.5t-11 -59.5q0 -11 2 -21l4 -22l-13 -2q-4 0 -6 5q-1 5 -1 9
q-7 -7 -15 -7q-3 0 -7 2l-4 6h-16v11h-20v14h-20v16h-14l-3 14q-6 0 -9 1t-5 2t-3 3l3 14q-1 0 -3 1q-4 1 -6 1q-5 4 -3 10q0 4 3 8h-3q-4 0 -4 2q-6 2 -1 11q1 5 3 9q-2 0 -4 1q-3 1 -5 1.5t-2 1.5q-3 2 -1.5 5t3.5 6q5 3 9 5q-10 4 -16 5.5t-10 8.5q-3 6 -3 9q-1 4 0 8
q0 1 4 2q3 0 6 1q-16 16 -16 26q-4 5 4 8q2 1 5 0q-6 5 -10 11t-4 11q-1 3 1 3.5t6 0.5h7q-9 4 -12.5 11t-3.5 15q0 6 9 4q1 0 3 -2l-2 4l-6 8q-3 4 -4 9q-2 9 1 10q2 1 6 0q-6 7 -6 13v8q0 7 1 9q0 8 8 6l4 -4q-2 4 -3 7q-1 8 -1 13q0 8 1 16q-2 8 3 8q2 0 6 -1l5 -10v2
q-1 1 -1 3t-1 5q0 6 -1.5 13.5t-1.5 16.5q0 3 2 5.5t5 2.5q2 0 4 -2l9 -14q-1 7 -4 13q-2 5 -3 13t-1 18t3 11.5t5 -1.5q4 -5 10 -10q0 -6 3 -14.5l6 -16.5l7 -19q-2 8 -3.5 26.5t3.5 36.5q6 16 11 16q2 0 7 -3v-9q1 -13 3 -26.5t8 -30.5t17 -41t28 -56q16 -33 27.5 -50.5
l18.5 -27.5q8 -9 13 -11l5 2l1 -7v7q0 2 3 4q1 1 2 1q2 -5 8.5 -16t10.5 -22q21 13 46 18t50 5q36 0 64 -5.5t50 -20.5q8 10 14.5 20.5t9.5 20.5l1 -1q3 -2 3 -4v-7l2 7l4 -2q3 2 13 11l18.5 27.5t29.5 50.5q16 32 26.5 56t16.5 41t8 30.5t6 26.5v9q2 3 4 3q5 0 11 -16
q5 -18 3.5 -36.5t-3.5 -26.5l7 19q3 8 6.5 16.5t5.5 14.5q4 5 7 10q8 7 8 -10q1 -10 0 -18t-3 -13q-4 -6 -5 -13l10 14q2 2 6 2t4 -8v-16q0 -8 -2 -14q-2 -3 -2 -6l4 6q4 1 7 1q8 0 8 -8t-2 -16q-2 -5 -4 -13q-1 -4 -4 -8q3 3 6 5q8 2 9 -6q1 -2 1 -9q0 -8 -6 -21q3 1 4 0
q3 -1 1 -10q-1 -5 -3 -9t-6 -8q-2 -2 -3 -4q2 2 5 2q7 2 7 -4q0 -8 -2 -15t-11 -11h6zM505 270q-29 0 -53 10.5t-42 29t-28.5 43.5t-10.5 53t10.5 51.5t28.5 42.5t42 29.5t53 10.5q28 0 53 -10.5t43.5 -29.5t29 -42.5t10.5 -51.5t-10.5 -53t-29 -43.5t-43.5 -29t-53 -10.5z
M405 670q-10 7 -19.5 18.5t-13.5 25.5t-1 30t18 30q16 13 30 14t26 -4q12 -4 23 -13q6 10 15 19q7 6 19 9.5t32 -3.5q9 -3 18 -7l15 -13.5t8 -18.5q25 13 40.5 7.5t23.5 -15.5q9 -14 16 -33q3 -22 -4 -37t-16 -23t-17.5 -10.5t-10.5 -2.5v-76q-22 10 -48.5 16.5t-55.5 6.5
q-27 0 -50.5 -5t-41.5 -15zM503 490q-37 0 -60 -24.5t-26 -59.5h12v-5h-12q3 -35 27.5 -56t58.5 -25v10h9v-10q31 4 54 25t24 56h-8v5h8q0 17 -5 32.5t-16 27.5t-26 18t-31 6v-10h-9v10zM505 396q-1 0 -6 3.5t-5 6.5q0 6 5 8.5t6 2.5q15 0 15 -11q0 -10 -15 -10zM478 366
q-3 -2 -8 3.5t-2 6.5l21 20l8 -9zM512 420h-9v44h9v-44zM817 730l1 2q-1 -1 -1 -2z" />
    <glyph glyph-name="uniE6C6" unicode="&#xe6c6;" 
 />
    <glyph glyph-name="uniE6C7" unicode="&#xe6c7;" 
 />
    <glyph glyph-name="uniE6C8" unicode="&#xe6c8;" 
 />
    <glyph glyph-name="uniE6C9" unicode="&#xe6c9;" 
 />
    <glyph glyph-name="uniE6CA" unicode="&#xe6ca;" 
 />
    <glyph glyph-name="uniE6CB" unicode="&#xe6cb;" 
 />
    <glyph glyph-name="uniE6CC" unicode="&#xe6cc;" 
 />
    <glyph glyph-name="uniE6CD" unicode="&#xe6cd;" 
 />
    <glyph glyph-name="uniE6CE" unicode="&#xe6ce;" 
 />
    <glyph glyph-name="uniE6CF" unicode="&#xe6cf;" 
 />
    <glyph glyph-name="uniE6D0" unicode="&#xe6d0;" 
 />
    <glyph glyph-name="uniE6D1" unicode="&#xe6d1;" 
 />
    <glyph glyph-name="uniE6D2" unicode="&#xe6d2;" 
d="M165 502q-41 4 -60 23.5t-12 46.5q3 14 10.5 24.5t17 16.5t21.5 8t23 -2q30 -6 39.5 -30.5t-4.5 -60.5l75 -52.5t77 -51.5l65.5 131.5l65.5 129.5q-29 34 -31.5 58t19.5 44q18 16 43 15.5t41 -18.5q42 -42 -15 -99l65 -129.5t69 -131.5l74 51.5l71 52.5q-11 38 -0.5 61.5
t39.5 29.5q26 8 47 -5.5t27 -41.5q5 -27 -13.5 -46.5t-56.5 -23.5q-13 -55 -23 -106l-20 -107q-4 -15 -10.5 -20.5t-21.5 -5.5h-551q-13 0 -20 3.5t-10 20.5l-21.5 105.5t-19.5 109.5zM810 200v-56h-595v56h595z" />
    <glyph glyph-name="uniE6D3" unicode="&#xe6d3;" 
d="M107 695l33 -11.5l32 -11.5q11 -4 23.5 -6.5t23.5 -5.5q22 -3 40 8.5t35 20.5l54 29t58 19q20 5 38.5 -1t34.5 -18q12 -12 -3 -16q-24 -17 -49.5 -32t-49.5 -32q-19 -14 -28 -32.5t-7.5 -38.5t12 -37.5t30.5 -30.5q33 -18 69 0l44.5 19.5l46.5 19.5q16 8 32 2t28 -19
l74.5 -76l74.5 -77q16 -15 13.5 -35t-26.5 -32q-12 -5 -21 0t-18 13l-20 20q-12 12 -21 25l-6 3l-7 2h-3q3 -2 3 -9q12 -12 22.5 -24.5l21.5 -24.5q27 -29 4 -56q-13 -10 -26.5 -11.5t-24.5 11.5q-13 11 -25 23.5t-23 27.5q-4 2 -7.5 4t-6.5 5q0 -3 -1.5 -4t-3.5 -2
q6 -7 11.5 -14.5t13.5 -14.5q6 -10 14 -18t17 -18q6 -9 1.5 -20t-10.5 -21q-20 -21 -42 -7l-24 24.5t-24 26.5q-7 6 -12 11t-11 8q0 -3 -1 -3q0 -6 1 -8q10 -13 20 -23.5l20 -21.5q6 -8 10 -16t2 -20q-5 -12 -14 -19.5t-20 -8.5q-7 -1 -15 2.5t-14.5 9.5t-11.5 14t-5 16
q0 18 -7.5 36.5t-23.5 32.5v6q-17 2 -25 14.5l-15 24.5q-7 7 -15.5 13.5t-12.5 12.5q-7 4 -11 11t-9 11q-7 7 -13 16t-16 16l-13.5 11.5t-11.5 14.5q-10 24 -30 33.5t-40 15.5q-8 0 -16.5 -3t-16.5 -7q-40 -15 -55 -55q-12 2 -22 4.5l-23 5.5v298zM925 410q-7 -2 -14 -3
t-14 -4q-12 -2 -25.5 -4.5t-25.5 -4.5q-20 -3 -35 3.5t-30 19.5l-67.5 71t-69.5 69q-5 7 -12 14.5l-14 14.5q-13 12 -30.5 11t-36.5 -11q-22 -9 -43 -21l-44 -24q-5 -2 -9.5 -4.5t-10.5 -5.5q-14 -8 -26.5 -7t-22 8.5t-15 19t-6.5 24.5q0 10 7.5 20.5t14.5 15.5
q37 24 74.5 46l73.5 44q14 6 30.5 15.5t29.5 15.5q35 20 65 -6l43 -38l46 -39q22 -20 53 -9q14 4 28 5.5t29 8.5q15 1 29 5.5t28 8.5v-259zM386 234q33 4 52 -20q6 -11 6 -22t-3.5 -21t-10 -18t-14.5 -12q-10 -6 -20 -7.5t-19 -3.5q-12 -2 -20.5 3t-13 13t-5.5 19t4 20
q2 0 3 2.5t3 6.5h-19q-11 -4 -20 -1.5t-19 12.5q-6 7 -6 18t6 19v8q-6 2 -13 1l-13.5 -2t-12.5 0.5t-10 8.5l-6 23l-6 25h-6q-27 -1 -39 15t-2 41q4 14 14 25.5t27 19.5q8 4 18.5 2.5t20 -7.5t15 -15t4.5 -19q0 -9 4.5 -12.5t14.5 -6.5q14 0 23 -9.5t9 -25.5
q0 -13 5.5 -17.5t13.5 -4.5q15 0 25 -11t10 -25v-22z" />
    <glyph glyph-name="uniE6D4" unicode="&#xe6d4;" 
d="M736 348q-18 11 -32 5t-23 -23l-66 -107q-30 19 -59 33.5t-53 30.5q-36 25 -76.5 29.5t-79.5 -0.5q-46 -7 -69 -35t-21 -75q3 -33 4 -65t3 -63h230v123l55 -25l54 -24q19 -10 34 -7t27 22l39 63l39 61q8 17 9 32.5t-15 24.5zM419 633q2 -19 5.5 -37t1.5 -27
q-8 -9 -31.5 -17.5t-50 -15t-50 -8t-30.5 4.5q-7 5 -12.5 20t-10.5 32q-34 -5 -61.5 13t-35.5 52q-5 16 -3 32.5t10 30t20.5 23.5t30.5 14q5 3 10 3h10q7 20 22.5 34.5t35.5 19.5q22 8 42.5 2.5t35.5 -17.5h7q15 3 31.5 0t30 -11t23.5 -21t14 -30q7 -31 -5.5 -58t-39.5 -39z
M483 679q-4 -13 -12 -26h414v-379h-80q-1 0 -6.5 -1t-30.5 -2q-11 0 -18.5 -3.5l-17.5 -8.5q0 -3 2 -5.5t2 -5.5h174v431h-427zM454 514q0 -4 -10 -10q-8 -7 -27.5 -15t-42.5 -14.5t-45.5 -11t-35.5 -4.5h-10q-2 0 -6.5 2t-6.5 4v-16q0 -22 7 -41t21 -32.5t33.5 -22
t41.5 -8.5t41.5 8.5t34 22t23 32.5t8.5 41q0 40 -26 65zM432 562q-40 -27 -82 -36t-84 -6q3 -10 8 -24.5t12 -16.5q11 -2 32 2.5t44 11t42.5 14t27.5 13.5q7 4 4.5 17t-4.5 25zM832 504l-41 -72.5t-42 -72.5q-6 6 -10 6q19 37 40 72.5l41 70.5q5 0 7.5 -2t4.5 -2z" />
    <glyph glyph-name="uniE6D5" unicode="&#xe6d5;" 
d="M633 346q16 0 18.5 -6.5t-0.5 -22.5q-29 0 -58 0.5t-55 3.5q-21 0 -33 -8t-17 -24q-8 -19 -17.5 -38.5t-17.5 -40.5q12 0 24 -1.5t25 -1.5v-43q-5 0 -11.5 -2t-17.5 -5q11 -21 21.5 -44.5l21.5 -47.5q-5 -3 -12.5 -6.5l-15.5 -7.5q-11 21 -19.5 43t-19.5 46
q-5 12 -12.5 16.5t-23.5 7.5q-52 6 -67 -46q-6 -15 -15.5 -32t-16.5 -35q-8 3 -14 5.5t-14 8.5q10 24 21.5 46.5t23.5 48.5q-12 -1 -20 1.5t-13 7.5t-7 12.5t-5 15.5q-11 50 -24 101l-27 104q-3 6 -5 13t-5 12v11q11 2 22 6.5t24 7.5q9 -32 16.5 -61.5l15.5 -58.5
q5 -25 11 -50.5t14 -49.5q0 -14 3 -18q6 -6 21 -6.5t30.5 1.5t29 7t15.5 12q14 24 25.5 50t24.5 49q3 7 11.5 13t13.5 6h131zM630 281v-241h-81v178h-79q8 15 14.5 29.5t14.5 27.5q0 2 4 4t7 2h120zM453 516q10 0 22 5t20 9l48.5 40l51.5 43q4 -25 1 -41.5t-19 -30.5
q-14 -8 -25.5 -20l-21.5 -23q-28 -19 -39 -43.5t-14 -55.5q0 -22 -6.5 -40.5t-10.5 -37.5q-6 -14 -13 -25t-13 -25q-10 -22 -17 -33t-15.5 -15.5t-23 -3.5t-40.5 5q3 73 7.5 144.5t7.5 147.5h100zM421 716q17 0 32.5 -7t27 -18.5t18.5 -27.5t7 -33q0 -19 -7 -35t-19.5 -28
t-29 -18t-33.5 -4q-17 0 -33 6.5t-27.5 18.5t-18.5 27.5t-7 32.5t7 33t19 27.5t28.5 18.5t35.5 7zM324 722q-5 3 -16 7t-19 19q-5 7 -7.5 19.5t0.5 26.5q1 5 4.5 11.5t8 12.5t12 10t17.5 4q5 0 9 -0.5t9 -3.5q3 22 13 29t12 7q6 3 11 3.5t10 0.5q14 0 22.5 -6.5t13.5 -11.5
q2 3 10 7t19 4q8 0 14 -3t14 -8q21 -16 21 -50q-5 -28 -21 -39v-57q-13 11 -29 17.5t-31 6.5q-30 0 -53 -14t-37 -38zM708 456q5 0 11.5 -3t10.5 -8q10 -12 10 -25q0 -8 -3 -13.5t-7 -11.5q-4 -5 -10.5 -8t-11.5 -3q-15 0 -24 11q-11 11 -11 25t11 25q9 11 24 11zM800 733
q6 -8 7 -18t1 -18q0 -29 -11 -49q-6 -11 -11.5 -20t-13.5 -20q-8 -7 -16 -15.5t-16 -19.5q-7 -10 -13.5 -21.5t-11.5 -25.5q-11 -26 -11 -57h-6q0 6 -0.5 11.5t-3.5 10.5v22q0 15 3 28.5t7 28.5q6 20 21 43q12 19 22 46q3 10 5 23t2 26v20q-2 7 -5 12t-5 10q-3 3 -6.5 7.5
t-7.5 7.5q-4 2 -9 2.5t-13 0.5q-14 0 -22.5 -3.5t-12.5 -14.5q-11 -16 -11 -39v-14q0 -5 0.5 -8.5t2.5 -8.5l-46 -11v13q-2 4 -2.5 7t-0.5 8q0 20 11 36q6 17 20 28q6 6 14 11t18 7q8 3 18 3.5t18 0.5q11 0 19 -2.5t17 -4.5q11 -4 17.5 -8.5t13.5 -10.5q6 -5 11 -11t7 -13z
" />
    <glyph glyph-name="uniE6D6" unicode="&#xe6d6;" 
 />
    <glyph glyph-name="uniE6D7" unicode="&#xe6d7;" 
d="M832 550l56 -32q23 -13 43 -26t27 -18q-3 -16 -9 -26q-6 -9 -16 -14.5t-28 1.5q-14 11 -30 22q-13 8 -30 17t-34 14q-16 5 -28 9.5t-21 8.5q-10 3 -17 7l6 -18l8 -16.5t10 -15.5q5 -8 19 -26l30 -37l39 -46q7 -7 11 -13t3.5 -13t-8.5 -11q-12 -6 -25 -5q-12 1 -26.5 8.5
t-31.5 26.5l-27.5 34t-14.5 19l-7 11q-7 9 -16 16l-15 12.5t-14 9.5q-11 4 -19 6q-4 1 -6 1q-7 -15 -12 -28l-8 -23t-5 -19q-1 -6 -3.5 -14.5t-5 -18t-3.5 -17t-1 -13.5v-55q-8 -3 -15 -3t-14 3.5t-13 15.5q-6 16 -8 34q-3 15 -3.5 34t3.5 41q3 7 4 17q1 8 0.5 18.5
t-4.5 20.5t-9.5 21.5l-10.5 21.5q-6 10 -11 21l-19 14h-14q-1 -5 -4 -8q-4 -7 -12 -13q-9 -6 -15.5 -12.5t1.5 -19.5q4 -7 12 -19t17 -23l20 -28q7 -9 13 -20q5 -10 10.5 -23.5t8.5 -29.5q2 -12 6 -22q3 -8 5 -17.5t2 -13.5t-2 -12t-6.5 -14t-10.5 -7t-12 9q-7 9 -16.5 23.5
l-21 31l-24.5 33.5t-26 30q-29 30 -54 48.5t-41 28.5q-8 6 -21.5 12.5t-29 15.5t-32 21t-29.5 29q-12 13 -24 29q-10 13 -21.5 29.5t-20.5 35.5v6l-56 19l21 136q50 -10 93 -20q18 -3 36 -7t33 -7l26.5 -5.5t17.5 -2.5q10 -3 30 -7t42.5 -9t45.5 -9.5t39 -6.5
q36 -5 52 -11.5t26 -16.5q8 -8 22.5 -17t33.5 -14q9 -2 21.5 -2.5t24.5 -0.5q14 -1 28 0q11 -3 22 -7q10 -3 20.5 -7l20.5 -8t24.5 -8.5t28.5 -8t25 -6t17 -2.5q4 -6 1 -14q-1 -7 -10.5 -16t-33.5 -19zM542 159l6 -32h-25l-6 25v7h25zM611 110l7 -21l-20 -10h-11v24l17 14z
M523 103h25v-32h-25v32zM587 254l11 -8l-8 -31l-23 14l6 17zM573 204l-13 -24l-25 2l13 29zM479 127l6 -7v-24h-17l-8 31v7zM590 180l8 24l31 -7l-11 -17h-28zM485 197l18 -7l-7 -31l-17 7zM611 166l25 -14v-18h-13l-12 7v25zM590 127l-17 14l-6 11l14 7h17z" />
    <glyph glyph-name="uniE6D8" unicode="&#xe6d8;" 
d="M887 505q39 -121 -7 -247q-23 -60 -62 -108t-89 -81t-108.5 -50t-120.5 -13q-68 4 -128.5 28.5t-107 65t-79 96t-44.5 119.5q-13 57 -8 115.5t28.5 112t62.5 99.5t96 80l45 -61q-47 -26 -82 -67.5t-54 -90t-21.5 -102.5t15.5 -105q32 -90 94.5 -144t159.5 -66
q90 -13 163.5 20t130.5 108q40 54 51 118.5t-2 126t-51 114.5t-94 85l48 61q119 -75 164 -214zM290 800q-2 6 -5.5 9.5t-5.5 8.5q-5 11 -3 22t11 16q21 15 37 -7q8 -12 14.5 -23t11.5 -18q8 -15 17 -26t17 -23h-5l131 -205q17 22 31 43l30 43l51 70l1 3q3 3 3 6l47.5 61
l46.5 64q7 9 16 15t20 2q15 -6 17 -20.5t-9 -29.5l-67 -79l-7 -10q-6 -5 -9.5 -11t-8.5 -7q0 -4 -3 -6l-2 -2l-71 -86q-17 -17 -31.5 -36.5t-31.5 -39.5q0 -2 -1 -6t1 -4q8 -17 18.5 -31.5t19.5 -31.5q30 11 59 5.5t49 -28.5q32 -37 44.5 -78t6.5 -89q-2 -27 -18 -38t-45 -4
q-30 8 -55.5 25t-48.5 37q-37 40 -38.5 82t26.5 76l-22 29l-22 27l-16 -20q-8 -10 -14 -22q-3 0 -3.5 -3.5t-0.5 -6.5q14 -29 7.5 -51.5t-26.5 -41.5l-56 -60.5l-55 -59.5l-7 -6q-2 -2 -6 -5l-3 4q29 34 56.5 70l55.5 72h-3v2q-5 -2 -9 -2.5t-6 -3.5l-53 -60l-52 -59
q-3 -2 -5 -5.5t-6 -3.5q0 7 2.5 10t4.5 5l45.5 62t48.5 63q3 5 5 10t-10 7l-59 -70.5l-60 -71.5q0 6 3 11.5t5 8.5l44 62.5l42 64.5q5 5 7 10.5t-7 7.5l-112 -145q-4 6 -2 8l5 5q20 35 41.5 68.5l44.5 68.5q17 27 40 42.5t58 5.5l16.5 21t16.5 20q6 8 4 12.5t-4 13.5
q-10 13 -21 25.5t-19 26.5l-5 3q-2 6 -4.5 10t-5.5 10l-5 2l-89 121q-11 17 -22.5 31.5zM536 775q27 0 49 -5t45 -11l-49 -67q-6 3 -11 3.5t-12 0.5q-48 4 -96 0l-41 67q28 9 57.5 11t57.5 1z" />
    <glyph glyph-name="uniE6D9" unicode="&#xe6d9;" 
d="M249 387q-7 -2 -15.5 -2.5t-17.5 -0.5q0 18 -0.5 33t-2.5 31h-27v96h94q0 -7 -0.5 -14.5t-4.5 -15.5h38v318q7 0 15 2.5l15 4.5v-455h-30v97h-29q-3 10 -4 18t-5 15h-59q0 -17 -1.5 -32.5t-1.5 -33.5h36v-61zM346 193q6 0 13 -1.5t17 -1.5q0 -15 -1.5 -32t-1.5 -32h37
v-30h321v94q8 0 15.5 1.5t15.5 1.5v-131h-382q-3 16 -4 32.5t-3 31.5h-27v67zM762 544v-30q7 0 15 -0.5t15 -2.5q2 -7 2.5 -15t0.5 -15h30v-160q-7 0 -13.5 -2.5t-13.5 -2.5q0 2 -2 6l-1 2v157h-33v33h-31v-97h-33v107q0 5 -0.5 10t-2.5 10h-60v-93h-34v124h97
q0 -7 -1.5 -15t-1.5 -16h67zM503 642v-30h-63v-131h-30v355q7 0 14.5 -0.5t15.5 -3.5v-190h63zM503 481v127h98v-30h-63v-97h-35zM762 193v128q9 0 17.5 -2.5t18.5 -2.5q-2 -15 -2.5 -31t-0.5 -31v-64q-9 2 -17.5 2.5t-15.5 0.5zM275 316q11 0 19 2.5t16 2.5v-64h-30
q0 15 -0.5 29.5t-4.5 29.5zM343 193q-7 0 -13.5 -0.5t-16.5 -2.5v64h30v-61zM407 866q0 -7 1.5 -14t1.5 -13h-67v27h64zM275 316q-4 4 -11 4.5t-15 0.5v63h26v-68z" />
    <glyph glyph-name="uniE6DA" unicode="&#xe6da;" 
d="M756 795v-690q0 -40 -23 -60.5t-63 -20.5h-314q-43 0 -67 21t-24 65v685q4 39 25.5 62.5t60.5 23.5h319q40 0 63 -23.5t23 -62.5zM699 196q0 3 2.5 6.5t2.5 7.5v529q0 13 -7 18t-17 5q-65 -4 -131 -4.5t-131 -0.5h-95v-561h376zM556 105q0 21 -12.5 35t-30.5 17
q-19 0 -33.5 -12t-14.5 -31q0 -21 12.5 -34.5t30.5 -17.5q18 0 33 12.5t15 30.5z" />
    <glyph glyph-name="uniE6DB" unicode="&#xe6db;" 
d="M657 443q-17 4 -29.5 10t-29.5 11q-39 6 -76.5 8.5t-76.5 -8.5q-39 -5 -73 -11t-73 -10l-8 -8q-6 94 -14.5 187t-14.5 186q22 0 39.5 4.5t34.5 10.5q32 0 61 3t63 -3q38 0 75.5 -10t70.5 -26q6 0 7 -5t1 -10q5 -28 10.5 -51.5t10.5 -51.5q12 -49 22.5 -98t22.5 -99v-8
q0 -21 -23 -21zM913 399q5 -7 4 -12t-11 -10l-67.5 -11.5l-72.5 -11.5q-55 -4 -105 0t-105 16h-18q-4 0 -6.5 2t-3 6.5t-3.5 12.5q0 12 -4 26.5t-4 31.5q12 -5 27 -5.5t26 -0.5q22 -6 40 -12t41 -11q10 0 12 -5.5t2 -15.5q0 -7 3 -12t3 -10h95l-10.5 47l-10.5 48h-44
q-6 33 -12 70.5t-18 76.5h52q-5 27 -10 50t-5 45h-51q0 5 -1 9.5t-5 4.5q16 6 27.5 6.5t22.5 0.5q27 5 54.5 11t55.5 11q10 0 12 -1.5t2 -13.5q0 -38 -1 -76.5t-7 -75.5q0 -12 1 -19t7 -17l43.5 -78zM269 230q0 -32 4 -65t4 -66v-22q6 -5 -1.5 -10.5t-13.5 -10.5
q-21 0 -21 21q0 17 -4 34.5t-4 38.5q0 38 -3.5 76.5t-3.5 77.5q-6 32 -8 65t-7 66q0 39 -3.5 77.5t-3.5 77.5q-6 33 -8 65t-7 65q0 23 -3.5 49t-3.5 54q0 10 4.5 16t9.5 6q6 5 11.5 2t10.5 -10v-7q6 -38 8 -72t7 -66q6 -40 7.5 -77.5t6.5 -76.5q0 -39 4 -77t4 -77
q5 -38 7 -76.5t7 -77.5zM393 597q6 0 7 0.5t1 6.5q0 11 -4 22t-4 22v58q-28 -5 -51 -10.5t-51 -11.5q0 -27 4 -54.5t4 -55.5q27 7 50 12t44 11zM532 501q-5 23 -7 41t-8 41q0 1 -1 3q-1 4 -6 4q-22 0 -42.5 -1t-36.5 -6q-7 0 -8 -1t-1 -8v-29q0 -10 4.5 -21t4.5 -23h101z
M562 604q17 -6 29.5 -10t29.5 -4q0 21 -4.5 39l-10.5 40q0 6 -1 7t-7 1l-66 22h-7q0 -22 3.5 -44t3.5 -44q6 -5 7.5 -6t6.5 -1h16zM766 495q17 5 33.5 6.5t32.5 7.5q-11 11 -17 22l-12 23q0 4 -2.5 10t2.5 10v45q-16 -7 -29 -8.5t-29 -6.5zM401 793q5 -17 6 -32.5t1 -32.5
h95q-5 17 -7 29.5t-8 29.5v6h-51q-11 6 -18 3t-18 -3z" />
    <glyph glyph-name="uniE6DC" unicode="&#xe6dc;" 
d="M268 47q-14 5 -19 14.5t5 24.5q11 39 23.5 74.5t22.5 69.5l79 215q10 29 19 58.5t20 59.5q0 4 -0.5 5t-5.5 1q-35 24 -48.5 64t2.5 80q10 33 30 54t53 31q6 0 7 3.5t1 9.5q0 20 2.5 38.5t-2.5 39.5q0 10 4 15.5t15 10.5h13q10 -5 15 -13.5t5 -19.5v-79q0 -1 1 -2
q1 -3 6 -3q38 -10 60 -34.5t31 -64.5q5 -24 -1 -52t-26 -53q-5 -3 -13 -9t-13 -16q-1 0 -2 -1q-2 -2 2 -5l29.5 -82t23.5 -83h3q4 -2 4 -5q15 10 26 16t27 17l36.5 30t33.5 34q26 30 40 64.5t19 72.5q5 16 14 21t19 0q10 0 15 -8t5 -18q-10 -44 -26.5 -83.5t-45.5 -73.5
q-30 -40 -65 -69t-79 -48h-6q4 -16 10.5 -30.5t16.5 -28.5q5 -26 12.5 -46.5t11.5 -45.5q11 -30 20 -58.5t20 -52.5q5 -15 3.5 -24.5t-17.5 -14.5h-13q-4 5 -9.5 10.5t-9.5 15.5l-18 65q-21 45 -36.5 92.5l-30.5 96.5q-5 0 -6.5 3t-6.5 -3q-29 -4 -58 -7t-59 2
q-6 0 -14.5 0.5t-17.5 4.5q-10 0 -15.5 4.5t-5.5 8.5q-4 15 4.5 24t21.5 9q49 -10 99 0q10 0 19 1t20 6q-5 4 -6 5.5t-1 7.5q-10 20 -16 42.5t-16 41.5q-5 15 -10 34l-10 38h-46l-28.5 -87.5t-30.5 -81.5q-10 -34 -23.5 -72t-27.5 -73q-10 -44 -26.5 -83.5t-26.5 -78.5
q-7 -19 -26 -26h-6z" />
    <glyph glyph-name="uniE6DD" unicode="&#xe6dd;" 
d="M795 354v-156h-562v183q20 0 31.5 -6.5t20.5 -6.5q21 -15 38 -22.5t34 -7.5t35 7.5t37 22.5q58 37 118 0q30 -30 67 -30t76 30q5 4 15 6.5t21 4t22.5 2t20.5 0.5zM403 419q-18 -20 -44.5 -20t-47.5 20q-19 11 -38.5 20.5l-39.5 19.5v52h562v-65q-19 5 -36 5t-34.5 -3.5
t-35 -10.5t-37.5 -18q-10 -10 -19.5 -13t-21 -1.5t-24.5 5.5l-26 9q-20 14 -38 22t-37 8t-38.5 -8t-44.5 -22zM835 171q29 0 32.5 -11.5t-6.5 -40.5h-694q-9 29 -5.5 40.5t32.5 11.5h641zM547 878q10 -30 12 -51.5t2 -41.5v-13q0 -23 -10.5 -34t-23.5 -15q-15 -5 -32 -2
q-10 5 -13.5 14t-3.5 18.5t2 18.5t2 13v14q9 20 27 40t38 39zM482 681h65v-131h-65v131z" />
    <glyph glyph-name="uniE6DE" unicode="&#xe6de;" 
d="M910 662q12 -5 17.5 -13t5.5 -23q-5 -22 -12 -43.5t-11 -42.5l-10 -48l-9 -48q-4 -17 -11.5 -29.5t-29.5 -12.5l26.5 -61.5l27.5 -62.5q0 -4 0.5 -9t5.5 -9q8 -28 -19 -36q-9 -4 -19.5 0.5t-14.5 16.5q-15 27 -27 54.5t-22 59.5q-3 9 -8.5 12.5t-15.5 -0.5q-8 0 -18 1.5
l-19.5 3t-17.5 0.5t-15 -5q-6 -5 -10.5 -12t-7 -16l-5 -18.5t-7.5 -20.5q-5 -12 -11.5 -25.5t-10.5 -26.5q-10 -18 -19.5 -25t-24.5 1q-8 5 -11.5 17t1.5 24l26 63t28 63q0 1 1 3q2 5 4 8q-4 0 -8.5 1t-8.5 5q-11 0 -15 7.5t-4 15.5q0 15 4 20t15 10h188q4 36 12.5 74
l16.5 74q5 11 5.5 15.5t0.5 14.5q4 14 13.5 21t23.5 2zM412 278q0 -4 2.5 -10t2.5 -14q6 -11 0.5 -18t-16.5 -12q-10 -4 -18.5 -0.5t-16.5 13.5l-11 19q-4 8 -8 22q-3 18 -11.5 38.5t-18.5 38.5q-5 9 -9.5 12.5t-13.5 -0.5h-59q-10 4 -12.5 0.5t-6.5 -12.5
q-12 -27 -22.5 -54l-24.5 -60q-6 -9 -13 -15.5t-17 -6.5q-18 4 -23 16t-1 30q14 27 28 58t26 62q0 5 0.5 9t4.5 8q-20 0 -28 11.5t-12 24.5l-19 94.5t-23 89.5q-5 17 3 28.5t20 11.5q14 5 23.5 -3t14.5 -25q6 -41 12.5 -78t15.5 -76q4 -5 5 -9.5t1 -9.5h182q11 -5 17.5 -10
t6.5 -20q0 -8 -4 -16t-20 -13h-10l26 -62zM559 278q16 -4 19.5 -12t3.5 -18q0 -9 -3.5 -16.5t-19.5 -7.5q-21 -4 -46.5 -4.5t-47.5 -0.5q-13 4 -18.5 12t-5.5 17q0 10 5.5 18t18.5 12h18v242h-141q-18 0 -27 8.5t-9 20.5q0 25 36 25q8 5 17.5 2.5t23.5 -2.5h294
q5 0 12.5 2.5t12.5 -2.5l11.5 -14t6.5 -16q0 -4 -7 -11t-18 -13h-153v-242h17z" />
    <glyph glyph-name="uniE6DF" unicode="&#xe6df;" 
d="M602 590q0 -36 5.5 -71.5t5.5 -64.5l15.5 -73t23.5 -73q7 -16 19 -29.5t19 -17.5q8 -16 9 -25t1 -16h-380q0 7 1 19.5t9 21.5q22 20 33 47.5t26 58.5q13 51 20.5 103t7.5 110v10h185zM720 54h-428q-15 0 -22 13t-7 27v58q0 29 29 29h436q30 0 30 -29v-58q0 -14 -8 -27
t-30 -13zM632 686h28v-68h-310v68h39v11q-7 14 -15.5 34.5t-23.5 41.5q0 31 28 31h11q8 -16 14.5 -17.5t13.5 -1.5q32 -16 60 0q-30 13 -30 57q0 17 2.5 24.5t16.5 15.5q14 22 39.5 22t48.5 -22q22 -22 16 -45t-36 -52q22 -9 44.5 -7.5t43.5 16.5q14 7 18 8.5t12 1.5
q7 -7 7.5 -14.5t0.5 -16.5q0 -21 -6 -37.5t-12 -38.5z" />
    <glyph glyph-name="uniE6E0" unicode="&#xe6e0;" 
d="M554 351q42 -4 73.5 -31t35.5 -69q3 -27 3.5 -50.5t0.5 -50.5q0 -4 -5.5 -8.5t-11.5 -4.5q-40 -17 -79.5 -21.5t-82.5 -0.5q-30 3 -57 9l-57 13q-6 0 -9.5 5t-3.5 12v79q0 49 33 81.5t86 36.5h74zM431 364q-99 -39 -91 -158q-13 4 -25.5 4.5t-22.5 0.5q-21 4 -38 9t-37 9
q-7 3 -10 6.5t-3 10.5v83q3 43 30.5 74.5t70.5 35.5q23 2 47.5 1t43.5 -1q10 -21 19 -38t16 -37zM960 421q6 -44 0 -88q0 -5 -8 -13q-27 -13 -56.5 -17.5t-62.5 -4.5q4 56 -17.5 94.5t-74.5 59.5q11 19 18 38.5t18 39.5q19 0 41 1.5t42 -1.5q21 -2 39 -11t31.5 -24t21.5 -34
t8 -40zM274 452q-50 -21 -72.5 -61.5t-19.5 -96.5q-66 0 -118 26q-8 0 -8 9q0 30 0.5 61.5t7.5 61.5q10 36 35 55t61 19q23 3 42.5 3.5t36.5 0.5q10 -23 19 -41t16 -37zM720 439q39 -4 63.5 -32.5t28.5 -64.5q3 -26 3 -50v-46q0 -4 -4 -9t-4 -8q-10 -5 -25.5 -9t-32 -7
t-32.5 -5t-28 -2q3 57 -19.5 97.5t-72.5 60.5q7 20 15.5 37t15.5 38q23 0 45.5 1t46.5 -1zM510 613q-19 0 -37 7.5t-31 20.5t-20.5 30.5t-7.5 37.5q0 19 7.5 37.5t20.5 32t31 21t37 5.5q20 0 37.5 -7.5t31 -21t20.5 -31t7 -36.5q0 -20 -7 -37.5t-20.5 -30.5t-31 -20.5
t-37.5 -7.5zM515 355q-19 0 -34.5 7t-27.5 18.5t-19 27.5t-7 34q-2 18 4 34.5t18 29.5t29 20.5t37 7.5q17 0 33.5 -7t28 -18.5t18.5 -27.5t7 -34q2 -19 -4 -35t-18.5 -29t-29 -20.5t-35.5 -7.5zM353 627q17 0 34 -6.5t30 -18t20 -26.5t7 -33q0 -3 -2 -8.5t-2 -8.5
l-18.5 -23.5t-12.5 -20.5q-3 -20 -13 -25t-26 -5l-3 -3l-3 -1q-2 -1 -3 -1q-19 0 -36 7t-29.5 19t-19.5 27.5t-7 33.5q-1 18 5 34t17.5 28.5t27 20.5t34.5 10zM208 534q-36 0 -61.5 23.5t-25.5 59.5q-2 18 3.5 34t16 29t24.5 22t30 12q36 3 65 -17.5t35 -52.5q4 -10 1 -14.5
t-9 -12.5q-10 -13 -19 -26t-16 -26l-8 -16q-3 -6 -7.5 -9.5t-11 -4.5t-17.5 -1zM641 452q-10 0 -13.5 5t-3.5 12q-7 20 -17 35.5t-23 25.5q-10 7 -11 11.5t3 14.5q6 33 34.5 53t61.5 18q32 -4 55.5 -30.5t23.5 -62.5q0 -21 -10 -38.5t-25.5 -29t-35 -15.5t-39.5 1zM720 644
q5 17 14.5 31t22 23.5t27.5 14t31 1.5q18 -2 33.5 -10t26.5 -19.5t17.5 -26.5t6.5 -31q0 -22 -10 -40.5t-26 -30t-36.5 -15.5t-41.5 2q-3 0 -8.5 4.5t-9.5 8.5q-5 40 -39 66q-6 4 -7 9.5t-1 12.5zM313 635q-3 27 -16 46.5t-36 36.5q7 23 23.5 39t37.5 22t43 1t40 -23
q-12 -26 -10 -54t19 -55v-9q-4 -3 -6.5 -3.5t-6.5 -0.5q-45 18 -88 0zM606 652q13 24 16 49t-7 48q0 3 2.5 8t6.5 5q17 14 36.5 19t38.5 -0.5t35.5 -20t24.5 -37.5q-15 -10 -23.5 -17.5t-14.5 -16.5t-11.5 -20.5t-11.5 -29.5q-19 7 -39 6.5t-40 -10.5q-7 0 -11.5 5.5
t-1.5 11.5zM554 548q-24 10 -46 7.5t-41 -12.5q-8 17 -12 31t-11 30h127q-4 -13 -9 -26.5t-8 -29.5z" />
    <glyph glyph-name="uniE6E1" unicode="&#xe6e1;" 
d="M737 586q0 -9 1 -20t5 -22q2 -32 2.5 -61t0.5 -63q0 -9 -3.5 -18t-15.5 -19l-164 -162.5l-162 -162.5q-15 -16 -36.5 -16t-38.5 16q-58 55 -112.5 112t-110.5 110q-19 17 -19 39.5t19 42.5l163 161.5l166 168.5q5 4 9 4h8q16 5 33 5.5t36 0.5q12 0 19 -0.5t19 -5.5h10
v-20q0 -14 2.5 -25t2.5 -21q3 -7 1 -12t-6 -14q-7 -23 2 -46t30 -32q29 -13 52 -2t32 40q7 21 2 38t-19 28q-4 4 -4.5 5t-0.5 4q-4 9 -4.5 23t-0.5 30h15q8 -5 17 -5.5t21 -4.5q10 0 14.5 -7.5t4.5 -21.5q4 -17 7 -33t3 -34zM864 639q0 -14 -3 -27.5t-7 -25.5l-10.5 -41
t-12.5 -40q-5 -8 -10 -19t-8 -23q-4 -5 -11 -9t-13 1q-8 0 -14 5.5t-6 13.5q-4 3 -1.5 9t6.5 11q11 18 19 42.5t15 49.5q4 14 4.5 28t4.5 29v39q0 28 -16 53t-47 37q-38 10 -70.5 -5t-47.5 -52q-7 -29 0 -53q5 -18 5.5 -32t4.5 -29v-25q0 -6 -6.5 -12t-12.5 -6q-17 0 -23 15
q-5 8 -5.5 14.5t-0.5 13.5l-5 36q-4 17 -9 35q0 23 4.5 42.5t15.5 38.5q10 21 27.5 34.5t38.5 19.5q18 17 42 17h20q5 0 9.5 -0.5t9.5 -4.5q17 0 31.5 -9l30.5 -19q20 -18 33.5 -40t17.5 -49v-63z" />
    <glyph glyph-name="uniE6E2" unicode="&#xe6e2;" 
d="M951 498l4 -23.5t4 -24.5v-29q-2 -12 -7 -24t-12 -21q-3 -6 -7 -10t-13 -4q-20 0 -39 0.5t-39 1.5q9 10 19.5 19t20.5 19l20 19l14 12l-54 78l-16 -15q-2 0 -6 -1q-8 -2 -12 -2q-2 0 -6 0.5t-6 2.5q-8 14 -18 21.5t-23 18.5l-14 33.5t-18 32.5v13q0 8 -2 13q-3 7 -6 12
t-7 10l-11 9q-6 8 -10 8q-2 3 -6 6h-3v3q-4 3 -4 9v5l4 2l23 33l-39 -4q-13 0 -22.5 -6t-14.5 -17l-3 -3q-31 15 -62 23.5t-68 8.5q-35 0 -65.5 -6.5t-59.5 -22.5l-8.5 5t-10.5 2h-217l5.5 15t7.5 16q12 24 33 38t46 27q13 4 20 3.5t20 -10.5q14 -17 30.5 -32.5t34.5 -34.5
q10 -8 24 -8q6 2 13 2.5t12 3.5q15 6 21.5 16.5t6.5 25.5v92q0 9 3 14t11 9l7 4.5t5 2.5q19 9 40 12h23q0 -2 6 -2q13 -3 26.5 -5.5t27.5 -9.5q14 -3 20 -10t6 -24v-86q0 -7 0.5 -13.5t5.5 -11.5q8 -8 16.5 -11.5l15.5 -6.5q24 -9 44 11q14 17 30.5 32.5l30.5 29.5
q11 10 17 10.5t19 -3.5q16 -9 30 -18t30 -22q11 -12 20.5 -26.5t14.5 -32.5q0 -9 -1 -15t-9 -14q-14 -15 -30 -29t-31 -30q-20 -19 -14 -47q4 -13 15 -21t24 -8h72q25 0 33.5 -7t17.5 -33zM835 253l14.5 -12.5l14.5 -12.5q8 -8 9.5 -15.5t-2.5 -16.5l-6 -18q-2 -8 -7 -15
q-12 -23 -33 -38.5t-46 -27.5q-13 -5 -19 -4t-17 11q-16 17 -33.5 33.5l-35.5 34.5q-11 12 -20 7q-9 -1 -18.5 -2.5t-16.5 -9.5q-10 -3 -14.5 -13t-4.5 -21v-86q0 -15 -6 -22.5t-20 -13.5h-2q-1 0 -6 -3l-24 -4q-12 -2 -25 -5h-32q-12 5 -23 8t-23 9q-8 4 -11 9.5t-3 16.5
v91q0 10 -2 17t-10 13q-8 3 -17 9t-16 7q-21 7 -34 -15q-19 -13 -36 -29l-31 -31q-17 -17 -32 -7q-12 4 -23 10.5l-21 12.5q-36 24 -52 69q-2 10 -1.5 19.5t8.5 19.5h188q33 -27 76 -41.5t90 -14.5q51 0 94.5 16.5t82.5 45.5h90q10 0 19 5t13 14h24zM155 244q-5 0 -8.5 4
t-3.5 9v7q0 8 12 8h74v153q-25 2 -46.5 13t-37.5 27.5t-26 40.5t-10 49v118q0 5 3.5 8.5t10.5 3.5h245q4 0 8 -3.5t4 -8.5v-118q0 -25 -10 -49t-26.5 -40.5t-38 -27.5t-45.5 -13v-153h76q8 0 12 -1.5t4 -6.5v-7q0 -5 -4 -9t-12 -4h-181zM126 555q0 -24 10 -46t25.5 -37.5
t37.5 -25t48 -9.5q23 0 44 9.5t38 25t26 37.5t9 46v115h-238v-115zM540 467q8 18 23.5 32t34.5 24t40 14.5t39 4.5q40 0 72.5 -15.5t53.5 -44.5q9 -8 18 -9t17 1q9 3 16 8l40 -45q-15 -12 -28 -24l-26 -22.5t-24 -22.5h-146q-6 20 -19.5 36t-31.5 28.5t-39 21t-40 13.5z
M407 342h508q-5 -5 -9 -10q-5 -6 -9.5 -12t-8.5 -13q-12 -14 -32 -24.5t-37 -10.5h-22v-2q0 -17 -18 -17h-239q-15 0 -15 17v2h-20q-17 0 -38.5 10.5t-33.5 24.5zM346 542q0 -38 -28.5 -63t-70.5 -25q-43 0 -72 25.5t-29 66.5v44q0 5 3 8.5t6 3.5h179q12 0 12 -12v-48z
M391 460q2 0 5.5 1t3.5 6q-2 4 -2.5 8.5t-0.5 6.5q2 5 6.5 9.5t9.5 4.5q11 3 23 0q10 -5 12 -15.5t-3 -20.5q1 -2 4 -4q1 -1 4.5 -2.5t6.5 -3.5l3 -4q7 -2 16 -2h16q17 5 39.5 1t48.5 -17q50 -24 66 -60h-180q-9 10 -9 20q-2 8 -7 16t-10 10h-4q-5 5 -10 6q-3 1 -4 1
q-7 -10 -17 -12.5t-21 2.5q-10 5 -12.5 17.5t2.5 21.5q5 6 10 6v2q0 2 4 2zM111 364q-24 -3 -35 17q-2 5 -3 10t-4 11q-2 4 -2.5 11t-3.5 15v28q4 15 7.5 29.5t5.5 27.5q4 8 8 13t8 7q8 -48 40 -81.5t81 -43.5v-46q-1 0 -4.5 1t-5.5 1h-92zM682 702q0 -3 -2.5 -5t-2.5 -5
q-3 -2 -3 -7q0 -4 2 -8.5t6 -6.5q0 -6 4 -6v-3q0 -2 3 -2v-3q4 -2 7.5 -4.5t8.5 -4.5l4 -5l5 -5q3 -2 5 -6t4 -7v-26l-2 -5v-3q-12 -14 -20 -19q-15 -6 -27 0q4 3 10 7t7 7q2 4 4.5 7t2.5 10v4l-4 4q0 4 -3 4q0 8 -5 8q-3 2 -10 6l-8 9q-3 0 -3 1v2l-3 3q0 4 -4 7q0 3 -2 5
t-2 9t1 13.5t7 12.5q2 6 8 9t12 3zM636 630q4 7 13 7q-4 -3 -4 -9v-6q3 -5 4 -6.5t2 -1.5l7 -8q4 0 7 -3l1 -2q2 0 2 -3v-17q-2 -2 -5 -6t-9 -4q-2 0 -4.5 -1.5t-7.5 1.5q2 3 5 4t4 3v7q3 2 0 2v3l-2 3q-3 4 -5.5 5t-5.5 4v1h-2v3q0 3 -2 6t-2 4q0 4 2 8.5t2 5.5zM279 294v4
q1 -2 4 -4h-4z" />
    <glyph glyph-name="uniE6E3" unicode="&#xe6e3;" 
d="M811 108h-13q-28 15 -56 26t-57 24q-9 5 -11 4.5t-7 -10.5q-9 -28 -21.5 -56t-22.5 -56l-4 -3q-3 -3 -8 -3l-7 6l-46 118l-46 113q0 5 -4 6t-10 5q0 -4 -0.5 -5t-5.5 -6l-46 -112l-47 -113v-6q-2 0 -5 -3q-1 -2 -1 -3q-4 0 -5 3q-1 1 -1 3q-5 9 -9.5 18.5t-9.5 18.5
q-5 19 -13.5 37.5l-17.5 37.5q-5 10 -7 10.5t-12 -4.5q-29 -8 -56.5 -20.5t-55.5 -23.5h-11q2 2 1 5q-2 4 3 9q48 110 94 230q0 1 1 3l3 3q-12 4 -14.5 10t-2.5 15v31q0 10 -1 14.5t-10 4.5q-11 5 -16.5 9t-16.5 4q-8 4 -12 10.5t1 19.5q5 10 8 19.5t3 17.5q10 19 0 19
q-8 10 -16 19t-14 19q-10 4 -10 12t10 13q6 4 10.5 12t14.5 12q7 9 0 26q0 5 -4 13.5t-9 17.5q-4 9 -0.5 14.5t13.5 10.5l38 18q9 5 10 9.5t1 9.5v44q0 14 5 16t14 2q10 0 19.5 2.5t18.5 -2.5q9 0 13.5 4t4.5 8q6 11 7 19.5t6 19.5q5 9 10 10.5t15 1.5q10 -5 22 -9t21 -9
q5 0 9.5 0.5t9.5 5.5q10 4 18.5 13t13.5 17q8 5 14.5 5t15.5 -5q5 -8 12.5 -14t12.5 -11q5 -4 9.5 -7t8.5 2q11 4 20 8l19 10q9 0 14 -1.5t10 -11.5q5 -8 9.5 -18.5t9.5 -25.5q0 -4 5 -8t14 -4q9 5 21.5 2.5t21.5 -2.5q10 0 14.5 -2t4.5 -16v-37q0 -5 3.5 -9t8.5 -4l38 -19
q9 0 10.5 -6.5t1.5 -12.5l-9 -24t-8 -25q-11 -10 0 -19q8 -5 17 -13.5l19 -17.5q5 -9 4.5 -15t-10.5 -10q-6 -10 -10 -14.5l-9 -10.5q-8 -5 -9 -10t3 -15q5 -10 6 -18t6 -14q5 -9 4.5 -16t-10.5 -7q-14 -6 -23.5 -10.5t-20.5 -8.5q-5 -5 -8.5 -9.5t-3.5 -10.5v-43
q0 -9 -2.5 -15t-16.5 -10q10 -20 18 -38t13 -37l37.5 -84l38.5 -84v-13zM498 364q47 0 88 17.5t71 47.5t48 71t18 89q0 46 -18 87t-48 71t-71 48t-88 18q-44 0 -83.5 -18.5t-69.5 -49.5t-47.5 -71.5t-17.5 -84.5q0 -48 17.5 -89t47.5 -71t69.5 -47.5t83.5 -17.5zM560 632h95
q-2 -3 -3 -5l-3 -4q-1 -1 -1 -3l-34 -26t-35 -24q-8 -5 -9 -10.5t4 -15.5q4 -18 9.5 -39.5t15.5 -41.5v-11l-9 4q-2 1 -4 1q-19 11 -34.5 24t-34.5 27q-9 5 -15.5 5t-14.5 -5q-15 -14 -32.5 -25t-30.5 -26q-5 0 -6 -0.5t-7 -4.5v11q6 24 13 43.5t12 37.5q5 10 2 15.5
t-8 10.5l-34 24l-34 26l-3 3q-4 3 -4 9h94q19 0 19 19q9 18 14.5 37t9.5 37l13 13q0 -5 3.5 -6.5t3.5 -6.5q4 -18 11.5 -37t12.5 -37q5 -10 8 -14.5t16 -4.5z" />
    </font>
</defs>
</svg>
